<svg width="75" height="75" viewBox="0 0 75 75" fill="none" xmlns="http://www.w3.org/2000/svg">
<path fill-rule="evenodd" clip-rule="evenodd" d="M37.502 0.000244141C58.2126 0.000244141 75.002 16.7896 75.002 37.5002C75.002 58.2109 58.2126 75.0002 37.502 75.0002C16.7913 75.0002 0.00195312 58.2109 0.00195312 37.5002C0.00195312 16.7896 16.7913 0.000244141 37.502 0.000244141ZM7.50195 37.5002C7.50195 54.0688 20.9334 67.5002 37.502 67.5002C44.4346 67.5002 50.8181 65.1487 55.8981 61.1997L13.8025 19.1041C9.8535 24.1842 7.50195 30.5676 7.50195 37.5002ZM37.502 7.50024C30.5693 7.50024 24.1859 9.8518 19.1058 13.8008L61.2014 55.8964C65.1504 50.8164 67.502 44.4329 67.502 37.5002C67.502 20.9317 54.0705 7.50024 37.502 7.50024Z" fill="#DE5640"/>
</svg>
