<svg width="24" height="24" viewBox="0 0 24 24" fill="none" xmlns="http://www.w3.org/2000/svg">
<g clip-path="url(#clip0_35206_6058)">
<path d="M20.6653 14.7625L17.6051 17.0226C17.3066 17.2358 16.9795 17.3978 16.6372 17.5074C16.819 16.9811 16.7881 16.417 16.5473 15.9122C16.2983 15.3904 15.8592 15.0022 15.3091 14.8189L9.20067 12.7978C7.36223 12.1849 4.88916 12.45 3.23813 13.9215H0.703125C0.314812 13.9215 0 14.2363 0 14.6246V21.6559C0 22.0442 0.314812 22.359 0.703125 22.359H3.51562C3.90394 22.359 4.21875 22.0442 4.21875 21.6559V21.1304L9.73359 22.3836C10.7393 22.6139 11.77 22.7347 12.7238 22.7347C12.7674 22.7347 12.8109 22.7345 12.8542 22.734C15.5228 22.7027 18.1003 21.8528 20.3079 20.2761L23.1173 18.1954C24.1007 17.4929 24.2935 16.1052 23.5384 15.1612C22.8387 14.2866 21.5767 14.1115 20.6653 14.7625ZM2.8125 20.9527H1.40625V15.3277H2.8125V20.9527ZM22.2999 17.0511L19.4905 19.1318C17.518 20.5406 15.2175 21.3 12.8377 21.3278C11.9576 21.3381 10.9924 21.2292 10.0463 21.0126L4.21875 19.6884V14.9315C5.73375 13.6165 7.82527 13.8216 8.75742 14.1324L14.8659 16.1534C15.0487 16.2144 15.1951 16.3438 15.2781 16.5177C15.3611 16.6917 15.3695 16.8868 15.3018 17.0673C15.1684 17.423 14.7815 17.6076 14.4212 17.4874C14.4205 17.4872 14.4198 17.4871 14.4191 17.4868L10.111 16.0663C9.74217 15.9447 9.34467 16.1451 9.22303 16.5139C9.10144 16.8827 9.30183 17.2802 9.67059 17.4018L14.0052 18.8311C15.4941 19.3274 17.1454 19.0791 18.4224 18.1669L21.4826 15.9068C21.7864 15.6898 22.207 15.7482 22.4403 16.0397C22.6915 16.3538 22.6297 16.8155 22.2999 17.0511Z" fill="#4899D1"/>
<path d="M19.0271 7.26045C18.6518 7.06015 18.2187 6.9798 17.7999 6.90209C17.4862 6.84387 17.1618 6.78373 16.9783 6.6858C16.8848 6.63584 16.8848 6.6229 16.8848 6.53871C16.8848 6.48888 16.9659 6.39795 17.1209 6.32041C17.5048 6.12851 18.0462 6.14421 18.3279 6.35548C18.6386 6.58849 19.0793 6.52549 19.3123 6.21485C19.5453 5.90421 19.4823 5.46349 19.1717 5.23048C18.9404 5.05704 18.6675 4.9331 18.3748 4.85937V4.68719C18.3748 4.29888 18.06 3.98407 17.6717 3.98407C17.2833 3.98407 16.9685 4.29888 16.9685 4.68719V4.88046C16.8047 4.92588 16.6447 4.9863 16.492 5.06266C15.8479 5.38469 15.4785 5.92273 15.4785 6.53876C15.4785 7.15409 15.7682 7.63394 16.3162 7.92645C16.6915 8.12674 17.1246 8.20709 17.5434 8.2848C17.8571 8.34302 18.1815 8.40316 18.365 8.50109C18.4585 8.55101 18.4585 8.56399 18.4585 8.64813C18.4585 8.69632 18.3753 8.78909 18.2212 8.8662C17.8376 9.05801 17.2967 9.04235 17.0154 8.83141C16.7048 8.5984 16.264 8.66145 16.031 8.97204C15.798 9.28273 15.861 9.72344 16.1717 9.95641C16.4029 10.1299 16.6758 10.2537 16.9685 10.3274V10.4997C16.9685 10.888 17.2833 11.2028 17.6717 11.2028C18.06 11.2028 18.3748 10.888 18.3748 10.4997V10.3054C18.5381 10.26 18.6978 10.2001 18.8501 10.1239C19.495 9.80149 19.8648 9.2636 19.8648 8.64809C19.8648 8.03276 19.5751 7.55295 19.0271 7.26045Z" fill="#4899D1"/>
<path d="M17.6719 13.9215C21.1612 13.9215 24 11.0827 24 7.59338C24 4.10406 21.1612 1.26526 17.6719 1.26526C14.1825 1.26526 11.3438 4.10406 11.3438 7.59338C11.3438 11.0827 14.1825 13.9215 17.6719 13.9215ZM17.6719 2.67151C20.3858 2.67151 22.5938 4.87946 22.5938 7.59338C22.5938 10.3073 20.3858 12.5153 17.6719 12.5153C14.958 12.5153 12.75 10.3073 12.75 7.59338C12.75 4.87946 14.958 2.67151 17.6719 2.67151Z" fill="#4899D1"/>
</g>
<defs>
<clipPath id="clip0_35206_6058">
<rect width="24" height="24" fill="white"/>
</clipPath>
</defs>
</svg>
