<svg width="25" height="24" viewBox="0 0 25 24" fill="none" xmlns="http://www.w3.org/2000/svg">
<g clip-path="url(#clip0_35539_2598)">
<path d="M12.5 0C8.28289 0 4.76562 3.39703 4.76562 7.73438C4.76562 9.38447 5.26147 10.8559 6.21308 12.2347L11.9081 21.1212C12.1844 21.5532 12.8162 21.5524 13.0919 21.1212L18.8116 12.2044C19.7428 10.8881 20.2344 9.34252 20.2344 7.73438C20.2344 3.46964 16.7647 0 12.5 0ZM12.5 11.25C10.5616 11.25 8.98438 9.6728 8.98438 7.73438C8.98438 5.79595 10.5616 4.21875 12.5 4.21875C14.4384 4.21875 16.0156 5.79595 16.0156 7.73438C16.0156 9.6728 14.4384 11.25 12.5 11.25Z" fill="#4899D1"/>
<path d="M17.9967 16.1576L14.4562 21.6929C13.5398 23.1218 11.4551 23.1171 10.5431 21.6943L6.99678 16.159C3.87659 16.8805 1.95312 18.202 1.95312 19.7813C1.95312 22.5217 7.38725 24 12.5 24C17.6128 24 23.0469 22.5217 23.0469 19.7813C23.0469 18.2009 21.1207 16.8786 17.9967 16.1576Z" fill="#4899D1"/>
</g>
<defs>
<clipPath id="clip0_35539_2598">
<rect width="24" height="24" fill="white" transform="translate(0.5)"/>
</clipPath>
</defs>
</svg>
