<svg width="40" height="41" viewBox="0 0 40 41" fill="none" xmlns="http://www.w3.org/2000/svg">
<rect y="0.5" width="40" height="40" rx="20" fill="white"/>
<g clip-path="url(#clip0_34957_1952)">
<path d="M26 18.5C26 15.1863 23.3137 12.5 20 12.5C16.6863 12.5 14 15.1863 14 18.5V26.5H26V18.5ZM28 27.1667L28.4 27.7C28.5657 27.9209 28.5209 28.2343 28.3 28.4C28.2135 28.4649 28.1082 28.5 28 28.5H12C11.7239 28.5 11.5 28.2761 11.5 28C11.5 27.8918 11.5351 27.7865 11.6 27.7L12 27.1667V18.5C12 14.0817 15.5817 10.5 20 10.5C24.4183 10.5 28 14.0817 28 18.5V27.1667ZM17.5 29.5H22.5C22.5 30.8807 21.3807 32 20 32C18.6193 32 17.5 30.8807 17.5 29.5Z" fill="#0097B2"/>
<circle cx="25" cy="15.5" r="7" fill="#00B047"/>
<path d="M25.75 12.3662V19.5H24.5732V13.7627L22.8301 14.3535V13.3818L25.6084 12.3662H25.75Z" fill="white"/>
</g>
<defs>
<clipPath id="clip0_34957_1952">
<rect width="24" height="24" fill="white" transform="translate(8 8.5)"/>
</clipPath>
</defs>
</svg>
