<svg width="104" height="52" viewBox="0 0 104 52" fill="none" xmlns="http://www.w3.org/2000/svg">
<rect x="0.5" y="0.5" width="103" height="51" rx="7.5" fill="white" stroke="#816A6B"/>
<path d="M39.4313 43.2107C38.7993 43.2107 38.2153 43.0987 37.6793 42.8747C37.1513 42.6427 36.6873 42.3187 36.2873 41.9027C35.8953 41.4867 35.5913 40.9987 35.3753 40.4387C35.1593 39.8787 35.0513 39.2667 35.0513 38.6027C35.0513 37.9307 35.1593 37.3147 35.3753 36.7547C35.5913 36.1947 35.8953 35.7067 36.2873 35.2907C36.6793 34.8747 37.1433 34.5546 37.6793 34.3306C38.2153 34.0986 38.7993 33.9827 39.4313 33.9827C40.0473 33.9827 40.5993 34.0907 41.0873 34.3067C41.5833 34.5227 41.9993 34.8027 42.3353 35.1467C42.6793 35.4906 42.9233 35.8586 43.0673 36.2507L41.9873 36.7427C41.7793 36.2466 41.4553 35.8466 41.0153 35.5426C40.5753 35.2307 40.0473 35.0747 39.4313 35.0747C38.8073 35.0747 38.2513 35.2227 37.7633 35.5187C37.2833 35.8147 36.9073 36.2267 36.6353 36.7547C36.3633 37.2827 36.2273 37.8987 36.2273 38.6027C36.2273 39.2987 36.3633 39.9107 36.6353 40.4387C36.9073 40.9667 37.2833 41.3787 37.7633 41.6747C38.2513 41.9707 38.8073 42.1187 39.4313 42.1187C40.0473 42.1187 40.5753 41.9667 41.0153 41.6627C41.4553 41.3507 41.7793 40.9467 41.9873 40.4507L43.0673 40.9427C42.9233 41.3347 42.6793 41.7027 42.3353 42.0467C41.9993 42.3907 41.5833 42.6707 41.0873 42.8867C40.5993 43.1027 40.0473 43.2107 39.4313 43.2107ZM46.3137 43.2107C45.8897 43.2107 45.5137 43.1347 45.1857 42.9827C44.8657 42.8227 44.6137 42.6067 44.4297 42.3347C44.2457 42.0547 44.1537 41.7347 44.1537 41.3747C44.1537 41.0307 44.2257 40.7227 44.3697 40.4507C44.5217 40.1707 44.7537 39.9347 45.0657 39.7427C45.3857 39.5507 45.7857 39.4147 46.2657 39.3347L48.6657 38.9387V39.8747L46.5177 40.2347C46.1017 40.3067 45.7977 40.4387 45.6057 40.6307C45.4217 40.8227 45.3297 41.0587 45.3297 41.3387C45.3297 41.6027 45.4337 41.8227 45.6417 41.9987C45.8577 42.1747 46.1257 42.2627 46.4457 42.2627C46.8537 42.2627 47.2057 42.1787 47.5017 42.0107C47.8057 41.8347 48.0417 41.5987 48.2097 41.3027C48.3857 41.0067 48.4737 40.6787 48.4737 40.3187V38.6747C48.4737 38.3227 48.3417 38.0387 48.0777 37.8227C47.8217 37.5987 47.4817 37.4866 47.0577 37.4866C46.6897 37.4866 46.3617 37.5827 46.0737 37.7747C45.7937 37.9587 45.5857 38.2067 45.4497 38.5187L44.4777 38.0146C44.5977 37.7186 44.7897 37.4547 45.0537 37.2227C45.3177 36.9827 45.6257 36.7947 45.9777 36.6586C46.3297 36.5227 46.6977 36.4547 47.0817 36.4547C47.5777 36.4547 48.0137 36.5507 48.3897 36.7427C48.7657 36.9267 49.0577 37.1867 49.2657 37.5227C49.4817 37.8507 49.5897 38.2347 49.5897 38.6747V43.0667H48.4977V41.8427L48.7017 41.9147C48.5657 42.1707 48.3817 42.3947 48.1497 42.5867C47.9177 42.7787 47.6457 42.9307 47.3337 43.0427C47.0217 43.1547 46.6817 43.2107 46.3137 43.2107ZM51.3201 43.0667V36.5986H52.4121V37.7867L52.2921 37.6187C52.4441 37.2507 52.6761 36.9787 52.9881 36.8027C53.3001 36.6187 53.6801 36.5267 54.1281 36.5267H54.5241V37.5827H53.9601C53.5041 37.5827 53.1361 37.7267 52.8561 38.0146C52.5761 38.2947 52.4361 38.6947 52.4361 39.2147V43.0667H51.3201ZM58.4554 43.2107C57.8474 43.2107 57.2994 43.0627 56.8114 42.7667C56.3314 42.4707 55.9514 42.0667 55.6714 41.5547C55.3914 41.0427 55.2514 40.4707 55.2514 39.8387C55.2514 39.1907 55.3914 38.6147 55.6714 38.1107C55.9514 37.5987 56.3314 37.1947 56.8114 36.8987C57.2994 36.6027 57.8474 36.4547 58.4554 36.4547C58.9914 36.4547 59.4674 36.5707 59.8834 36.8027C60.2994 37.0267 60.6274 37.3307 60.8674 37.7147L60.6874 37.9907V33.9827H61.8154V43.0667H60.7234V41.6867L60.8674 41.8787C60.6434 42.3027 60.3154 42.6307 59.8834 42.8627C59.4594 43.0947 58.9834 43.2107 58.4554 43.2107ZM58.5514 42.1307C58.9594 42.1307 59.3234 42.0307 59.6434 41.8307C59.9634 41.6307 60.2154 41.3587 60.3994 41.0147C60.5914 40.6627 60.6874 40.2707 60.6874 39.8387C60.6874 39.3987 60.5914 39.0067 60.3994 38.6627C60.2154 38.3107 59.9634 38.0347 59.6434 37.8347C59.3234 37.6347 58.9594 37.5347 58.5514 37.5347C58.1514 37.5347 57.7874 37.6387 57.4594 37.8467C57.1394 38.0467 56.8874 38.3187 56.7034 38.6627C56.5194 38.9987 56.4274 39.3907 56.4274 39.8387C56.4274 40.2707 56.5194 40.6627 56.7034 41.0147C56.8874 41.3587 57.1394 41.6307 57.4594 41.8307C57.7794 42.0307 58.1434 42.1307 58.5514 42.1307Z" fill="#0F0B18"/>
<path fill-rule="evenodd" clip-rule="evenodd" d="M32.4978 23.9048H29.2584L26.8292 15.9548C26.7139 15.5891 26.4691 15.2658 26.109 15.1134C25.2103 14.7305 24.22 14.4258 23.1396 14.2721V13.966H28.3581C29.0783 13.966 29.6185 14.4258 29.7085 14.9597L30.9689 20.6943L34.2068 13.966H37.3562L32.4978 23.9048ZM39.1567 23.9048H36.0973L38.6165 13.966H41.6759L39.1567 23.9048ZM45.6339 16.7193C45.724 16.184 46.2641 15.878 46.8943 15.878C47.8846 15.8011 48.9634 15.9548 49.8637 16.3364L50.4038 14.1965C49.5035 13.8905 48.5132 13.7368 47.6145 13.7368C44.6452 13.7368 42.4845 15.1134 42.4845 17.0241C42.4845 18.4776 44.015 19.2408 45.0953 19.7006C46.2641 20.159 46.7143 20.4651 46.6242 20.9236C46.6242 21.6112 45.724 21.9173 44.8253 21.9173C43.7449 21.9173 42.6646 21.6881 41.6759 21.3052L41.1357 23.4464C42.216 23.828 43.3848 23.9817 44.4651 23.9817C47.7946 24.0572 49.8637 22.6818 49.8637 20.6175C49.8637 18.0178 45.6339 17.8655 45.6339 16.7193ZM60.5708 23.9048L58.1417 13.966H55.5324C54.9923 13.966 54.4521 14.2721 54.272 14.7305L49.7738 23.9048H52.9232L53.5518 22.4526H57.4214L57.7816 23.9048H60.5708ZM55.9825 16.6426L56.8812 20.3883H54.362L55.9825 16.6426Z" fill="#172B85"/>
<path d="M74.2178 13.0001C77.9233 13.0003 80.9268 15.4742 80.9268 18.5255C80.9265 21.5765 77.9231 24.0497 74.2178 24.0499C72.5562 24.0499 71.0362 23.5513 69.8643 22.7276C68.6925 23.5509 67.1738 24.0498 65.5127 24.0499C61.8071 24.0499 58.803 21.5766 58.8027 18.5255C58.8027 15.4741 61.807 13.0001 65.5127 13.0001C67.1736 13.0001 68.6926 13.4983 69.8643 14.3214C71.0361 13.4979 72.5564 13.0001 74.2178 13.0001Z" fill="#ED0006"/>
<path d="M74.2173 13.0001C77.9229 13.0002 80.9272 15.4741 80.9272 18.5255C80.927 21.5766 77.9228 24.0498 74.2173 24.0499C72.5559 24.0499 71.0366 23.5511 69.8647 22.7276C71.3066 21.7143 72.222 20.2087 72.2222 18.5255C72.2222 16.8419 71.3071 15.3347 69.8647 14.3214C71.0365 13.4981 72.5562 13.0001 74.2173 13.0001Z" fill="#F9A000"/>
<path d="M69.8647 14.3218C71.3069 15.3351 72.2221 16.8415 72.2222 18.5249C72.2222 20.2083 71.3069 21.7146 69.8647 22.728C68.4227 21.7146 67.5073 20.2083 67.5073 18.5249C67.5074 16.8415 68.4226 15.3351 69.8647 14.3218Z" fill="#FF5E00"/>
</svg>
