<svg width="173" height="180" viewBox="0 0 173 180" fill="none" xmlns="http://www.w3.org/2000/svg">
<path d="M54.38 78.5279C54.5088 78.6832 54.6375 78.8386 54.8548 79.0798C54.9882 79.2411 54.9961 79.3203 54.9663 79.532C55.0511 80.7928 55.2084 81.9247 55.2108 83.0569C55.2318 92.7915 55.2248 102.526 55.1853 112.351C54.9979 112.95 54.8513 113.459 54.7047 113.967C54.7047 113.967 54.6968 113.931 54.6411 113.961C54.5322 114.081 54.479 114.171 54.4257 114.261C54.4257 114.261 54.4242 114.213 54.3752 114.234C54.2613 114.325 54.1964 114.395 54.0236 114.474C52.8499 114.656 51.7849 114.975 50.7182 114.981C42.9733 115.024 35.228 115.004 27.3987 114.927C27.0463 114.813 26.7775 114.738 26.51 114.743C22.7114 114.805 19.1082 113.985 15.6587 112.411C14.4778 111.872 13.2589 111.416 12.0574 110.923C12.0574 110.923 12.0859 110.917 12.0579 110.839C11.491 110.447 10.9522 110.133 10.4134 109.819C10.4134 109.819 10.4414 109.813 10.4063 109.756C10.2757 109.66 10.1802 109.621 10.0847 109.582C10.0847 109.582 10.1339 109.574 10.1052 109.521C9.97954 109.454 9.88253 109.441 9.78551 109.427C9.78551 109.427 9.75271 109.403 9.76076 109.32C9.69322 109.228 9.61763 109.22 9.54204 109.211C9.54204 109.211 9.44878 109.189 9.45602 109.065C9.31721 108.872 9.17115 108.804 9.02508 108.736C9.02508 108.736 9.05825 108.728 9.02557 108.67C8.896 108.574 8.7991 108.537 8.7022 108.499C8.7022 108.499 8.74638 108.49 8.73237 108.415C8.52164 108.244 8.32492 108.148 8.12821 108.052C8.12821 108.052 8.11016 108.025 8.11604 107.942C8.03931 107.844 7.95669 107.828 7.87406 107.813C7.87406 107.813 7.81244 107.787 7.82857 107.668C7.57247 107.361 7.30025 107.173 7.02802 106.985C7.02802 106.985 6.97169 106.949 6.99005 106.854C6.93257 106.746 6.85673 106.733 6.78089 106.72C6.78089 106.72 6.70587 106.689 6.71987 106.585C6.65317 106.461 6.57249 106.441 6.49181 106.422C6.49181 106.422 6.44775 106.395 6.46528 106.284C6.22485 105.93 5.96689 105.685 5.70894 105.44C5.70894 105.44 5.75252 105.434 5.7291 105.38C5.62335 105.266 5.54103 105.206 5.46895 105.143C5.4792 105.14 5.46766 105.158 5.47516 105.065C5.21383 104.661 4.945 104.349 4.67417 103.943C4.46658 103.649 4.26098 103.448 4.0762 103.243C4.09702 103.239 4.09181 103.281 4.07623 103.206C3.98646 103.065 3.91227 103 3.8484 102.935C3.85872 102.935 3.85096 102.954 3.84764 102.869C3.75199 102.659 3.65967 102.534 3.56793 102.311C3.27914 101.82 2.98979 101.427 2.70044 101.034C2.70044 101.034 2.73272 101.031 2.74147 100.945C2.55265 100.566 2.35508 100.273 2.1664 99.9783C2.17529 99.9765 2.15936 99.9818 2.16988 99.8893C2.08405 99.6547 1.9877 99.5126 1.89135 99.3705C1.89135 99.3705 1.92209 99.3726 1.92461 99.2768C1.78246 98.656 1.65384 98.126 1.49044 97.607C0.56947 94.6814 -0.0060119 91.7203 4.73838e-05 88.6203C0.0393704 68.4939 0.0206016 48.3675 0.0307506 28.2411C0.03109 27.562 0.0746829 26.871 0.204142 26.2062C0.664031 23.8446 1.1699 21.4919 1.64935 19.0351C1.63714 18.7378 1.63392 18.5412 1.6307 18.3446C1.74107 18.1345 1.85144 17.9243 2.04127 17.5721C2.22906 17.0948 2.33736 16.7595 2.44567 16.4242C4.64007 12.7112 7.34434 9.44462 10.9595 6.88513C11.2373 6.76517 11.3789 6.61666 11.5206 6.46815C11.5206 6.46815 11.5261 6.49823 11.6113 6.50199C12.1863 6.12428 12.6762 5.74282 13.166 5.36135C13.166 5.36135 13.1719 5.39449 13.2504 5.3975C13.4369 5.27376 13.5451 5.14702 13.6532 5.02028C13.6532 5.02028 13.7345 5.05622 13.7882 5.07762C14.076 4.91364 14.3101 4.72826 14.5442 4.54287C14.5442 4.54287 14.5489 4.57527 14.64 4.58533C17.9751 3.40939 21.2191 2.22339 24.5815 1.03873C26.4147 0.856101 28.1287 0.522647 29.8446 0.51307C39.2138 0.460759 48.5835 0.490858 57.953 0.487422C75.0464 0.481153 92.1399 0.471237 109.296 0.457031C109.438 0.478415 109.519 0.5038 109.599 0.527378C109.834 0.837751 110.07 1.14813 110.258 1.63087C110.201 12.8774 110.192 23.9516 110.124 35.0884C110.054 35.2603 110.044 35.3695 110.034 35.4787C110.034 35.4787 110.012 35.4961 109.9 35.4949C108.509 35.7281 107.23 36.1643 105.95 36.167C85.643 36.2097 65.336 36.1969 45.029 36.1971C44.6174 36.1971 44.2033 36.1718 43.7946 36.2077C42.1772 36.3498 40.6797 37.3475 40.4237 38.4307C40.4237 38.4307 40.3994 38.3996 40.3182 38.418C39.9231 39.0616 39.6093 39.6869 39.2973 40.441C39.2974 51.3736 39.2928 62.1776 39.307 72.9814C39.3075 73.3331 39.5004 73.6845 39.6538 74.0519C39.704 74.0677 39.8005 74.11 39.8005 74.11C39.8097 74.2296 39.819 74.3492 39.8495 74.6538C40.2289 75.4084 40.587 75.9781 40.9451 76.5477C40.9451 76.5477 40.9386 76.5621 40.9629 76.6267C41.0392 76.7791 41.1161 76.82 41.2179 76.8141C41.328 76.9131 41.4382 77.0121 41.6432 77.1827C41.7382 77.2544 41.7766 77.3733 41.7381 77.4259C41.8458 77.5033 41.992 77.5279 42.1194 77.5614C42.1006 77.5703 42.1101 77.5299 42.1381 77.6365C42.663 77.9005 43.1563 78.1809 43.6573 78.1954C47.083 78.2944 50.5104 78.3377 53.9024 78.4056C53.8676 78.4124 53.9329 78.3847 53.9286 78.4373C53.9904 78.4947 54.0566 78.4995 54.1879 78.5008C54.2531 78.4973 54.38 78.5279 54.38 78.5279Z" fill="#1E3A8A"/>
<path d="M141.681 74.1038C141.419 73.8007 141.157 73.4975 140.953 73.0412C140.974 71.577 140.906 70.266 140.904 68.9548C140.895 60.0057 140.907 51.0564 140.878 42.1073C140.876 41.6018 140.563 41.0973 140.395 40.5924C139.241 37.5125 138.074 36.676 134.8 36.674C129.08 36.6704 123.359 36.6814 117.639 36.7069C114.762 36.7197 113.673 35.6679 113.673 32.781C113.671 23.1252 113.673 13.4693 113.67 3.81351C113.67 1.1175 114.759 0.0050171 117.475 0.003435C124.34 -0.000566807 131.204 -0.00702631 138.068 0.0240099C141.589 0.0399293 145.129 -0.0836146 148.626 0.233279C159.499 1.21848 167.406 6.47252 171.567 16.9272C171.577 17.2183 171.643 17.3625 171.709 17.5066C171.709 17.5066 171.681 17.5081 171.675 17.6108C171.946 19.9359 172.211 22.1598 172.517 24.3783C172.544 24.5795 172.826 24.7458 172.989 24.9282C173.003 25.14 173.017 25.3518 172.94 25.7555C172.819 26.4457 172.762 26.9439 172.762 27.4422C172.757 41.2359 172.767 55.0296 172.747 68.8233C172.744 70.5933 172.593 72.3631 172.511 74.133C172.511 74.133 172.5 74.1081 172.444 74.1357C172.332 74.245 172.277 74.3269 172.221 74.4087C172.221 74.4087 172.224 74.3832 172.135 74.3804C171.846 74.5046 171.645 74.6315 171.445 74.7584C171.445 74.7584 171.38 74.7295 171.26 74.6898C169.86 74.6465 168.579 74.6489 167.299 74.6382C158.94 74.568 150.581 74.4949 142.222 74.4228C142.222 74.4228 142.251 74.4158 142.213 74.3461C142.01 74.2188 141.846 74.1613 141.681 74.1038Z" fill="#FFAA18"/>
<path d="M171.989 78.7471C172.31 79.4012 172.892 80.0481 172.91 80.7104C173.035 85.2719 173.136 89.8439 171.715 94.4122C171.501 94.7726 171.456 95.0265 171.411 95.2805C171.411 95.2805 171.402 95.2459 171.332 95.2903C170.58 97.0569 169.898 98.7791 169.217 100.501C169.217 100.501 169.206 100.468 169.143 100.505C169.03 100.706 168.979 100.871 168.929 101.036C168.929 101.036 168.924 101.015 168.834 101.025C168.63 101.318 168.515 101.6 168.4 101.882C168.4 101.882 168.385 101.847 168.322 101.881C168.206 102.078 168.151 102.242 168.096 102.406C168.11 102.49 168.088 102.563 167.897 102.674C167.694 102.803 167.624 102.884 167.554 102.965C167.554 102.965 167.594 102.934 167.511 102.969C167.22 103.373 167.012 103.741 166.804 104.11C166.804 104.11 166.767 104.089 166.695 104.104C166.57 104.284 166.517 104.449 166.464 104.615C166.464 104.615 166.455 104.587 166.398 104.614C166.287 104.728 166.234 104.814 166.18 104.9C166.18 104.9 166.194 104.864 166.117 104.87C165.904 105.11 165.768 105.345 165.632 105.58C163.672 107.332 161.712 109.084 159.613 110.793C159.327 110.894 159.181 111.038 159.034 111.182C159.034 111.182 159.033 111.164 158.953 111.179C158.744 111.292 158.615 111.39 158.486 111.489C158.486 111.489 158.49 111.457 158.399 111.453C157.454 111.922 156.6 112.395 155.746 112.867C155.746 112.867 155.74 112.837 155.648 112.831C155.161 113.022 154.766 113.22 154.371 113.418C154.371 113.418 154.365 113.386 154.266 113.38C153.853 113.42 153.527 113.423 153.23 113.517C150.027 114.53 146.748 114.786 143.397 114.768C133.034 114.713 122.672 114.766 112.309 114.777C112.309 114.777 112.329 114.816 112.285 114.735C112.069 114.61 111.898 114.566 111.727 114.521C111.727 114.521 111.762 114.512 111.733 114.446C111.6 114.338 111.497 114.295 111.418 114.232C111.443 114.211 111.476 114.266 111.458 114.186C111.349 114.05 111.259 113.995 111.187 113.938C111.206 113.937 111.199 113.974 111.205 113.873C111.081 113.642 110.951 113.512 110.77 113.322C110.72 113.11 110.72 112.957 110.799 112.721C110.909 112.415 110.97 112.191 110.97 111.968C110.975 101.975 110.977 91.9822 110.964 81.9894C110.964 81.6489 110.809 81.3085 110.71 80.8736C110.769 80.4734 110.844 80.1676 110.919 79.8618C110.919 79.8618 110.977 79.7605 111.055 79.6533C111.282 79.2982 111.431 79.0503 111.58 78.8025C111.58 78.8025 111.554 78.7967 111.635 78.7773C111.837 78.5767 111.957 78.3955 112.078 78.2143C112.123 78.2064 112.169 78.1985 112.351 78.1818C112.535 78.0953 112.582 78.0176 112.629 77.9399C112.834 77.9392 113.039 77.9385 113.468 77.923C114.526 77.9259 115.36 77.9437 116.266 78.0361C116.924 78.0604 117.512 78.0103 118.221 77.9387C119 77.9314 119.657 77.9456 120.393 78.0383C121.513 78.0643 122.553 78.0117 123.686 77.9382C123.906 77.9312 124.032 77.945 124.214 78.0297C124.593 78.0537 124.916 78.007 125.367 77.939C126.696 77.9316 127.899 77.9456 129.157 78.0301C129.537 78.0538 129.86 78.007 130.293 77.9387C130.702 77.9316 131 77.9458 131.346 78.0277C131.632 78.0502 131.869 78.005 132.223 77.9386C132.817 77.9317 133.293 77.946 133.79 78.0059C133.884 78.0209 133.957 77.9904 134.156 77.9383C135.485 77.9317 136.688 77.9467 137.971 78.0391C139.09 78.0643 140.129 78.0121 141.296 77.9385C143.266 77.9318 145.109 77.9465 147.035 78.0399C149.332 78.1527 151.547 78.2083 153.762 78.2075C154.416 78.2073 155.069 78.0478 155.848 77.9397C156.994 77.9324 158.015 77.9468 159.084 78.0282C159.369 78.0507 159.605 78.006 159.97 77.9399C161.666 77.9327 163.234 77.9471 164.881 78.0382C165.816 78.0641 166.674 78.0133 167.635 77.9408C167.951 77.9334 168.162 77.9477 168.444 78.0359C169.103 78.0612 169.69 78.0124 170.367 77.9427C170.682 77.9847 170.907 78.0476 171.168 78.1997C171.382 78.3383 171.558 78.3876 171.735 78.4369C171.735 78.4369 171.702 78.4681 171.716 78.524C171.816 78.6356 171.903 78.6914 171.989 78.7471Z" fill="#FB5230"/>
<path d="M91.434 41.6881C91.525 41.4794 91.616 41.2707 91.7942 40.9462C91.924 40.7491 91.9666 40.6677 92.0091 40.5864C92.0091 40.5864 92.1066 40.5724 92.2325 40.545C92.426 40.4374 92.4938 40.3572 92.5616 40.277C92.5616 40.277 92.5596 40.3016 92.6675 40.3041C94.3647 40.2187 95.9539 40.0579 97.5434 40.0547C108.655 40.0326 119.766 40.0212 130.878 40.066C132.589 40.0729 134.3 40.386 136.011 40.5575C136.011 40.5575 135.975 40.5643 136.008 40.6202C136.137 40.7219 136.232 40.7677 136.326 40.8134C136.326 40.8134 136.272 40.8212 136.296 40.8739C136.408 40.9864 136.496 41.0463 136.583 41.1062C136.583 41.1062 136.544 41.1086 136.543 41.1857C136.672 41.3711 136.8 41.4795 136.929 41.5879C136.929 41.5879 136.896 41.6099 136.861 41.7247C136.813 43.2075 136.798 44.5755 136.786 45.9435C136.705 55.009 136.624 64.0745 136.544 73.14C136.368 73.3027 136.192 73.4653 135.908 73.7329C135.621 74.0259 135.443 74.2141 135.141 74.3941C133.931 74.4708 132.845 74.6218 131.758 74.6285C127.23 74.6561 122.702 74.635 118.175 74.6415C109.897 74.6535 101.62 74.6723 93.3102 74.6016C92.9374 74.3799 92.5966 74.2449 92.2559 74.1098C92.2559 74.1098 92.2786 74.107 92.2731 74.009C92.0927 72.9842 91.7697 72.058 91.7659 71.1305C91.7285 61.9374 91.7478 52.7441 91.7344 43.5508C91.7336 43.0221 91.5886 42.4935 91.4869 41.897C91.4534 41.7821 91.4436 41.7351 91.434 41.6881Z" fill="#1E3A8A"/>
<path d="M87.0597 114.731C87.012 114.735 86.9644 114.739 86.7283 114.744C84.5841 114.833 82.6286 114.982 80.6723 114.993C74.7715 115.026 68.8704 114.999 62.9694 115.015C62.4881 115.017 62.0072 115.167 61.5505 115.264C61.5749 115.28 61.552 115.334 61.552 115.334C61.4262 115.315 61.3004 115.296 61.0667 115.25C60.9588 115.223 60.9577 115.15 60.918 115.055C60.6914 114.921 60.5045 114.882 60.3176 114.842C60.3176 114.842 60.3663 114.82 60.3474 114.753C60.1642 114.622 59.9999 114.557 59.8356 114.493C59.8356 114.493 59.8696 114.487 59.8393 114.431C59.7196 114.322 59.6302 114.271 59.5522 114.215C59.5637 114.211 59.5473 114.229 59.5318 114.159C59.4394 114.036 59.3626 113.982 59.2857 113.929C59.2857 113.929 59.3167 113.927 59.3226 113.824C59.2399 112.863 59.075 112.007 59.0739 111.15C59.0574 97.9439 59.0612 84.7375 59.0646 71.5311C59.0647 70.7392 59.1003 69.9472 59.1194 69.1552C59.5034 68.7007 59.8874 68.2462 60.4349 67.7715C60.7367 67.6875 60.875 67.6236 61.0134 67.5597C61.1349 67.5427 61.2565 67.5256 61.4784 67.5076C61.5788 67.5067 61.5247 67.5424 61.6145 67.6135C61.9282 67.7144 62.1521 67.77 62.376 67.7701C69.7081 67.7751 77.0403 67.7776 84.3724 67.7656C84.7179 67.7651 85.0631 67.6277 85.4085 67.554C86.3154 68.2171 87.2223 68.8803 88.1424 69.6432C88.1556 69.743 88.1146 69.6881 88.0482 69.7809C87.9562 70.2361 87.9083 70.5984 87.9082 70.9608C87.9044 84.3518 87.9102 97.7428 87.8939 111.134C87.8928 112.082 87.7341 113.03 87.6487 113.978C87.5687 114.098 87.4887 114.218 87.3137 114.423C87.1657 114.583 87.1127 114.657 87.0597 114.731Z" fill="#1E3A8A"/>
<path d="M86.5205 39.7278C87.9737 40.3605 88.4557 41.5336 88.4467 43.0401C88.4122 48.7574 88.4159 54.4748 88.3828 60.192C88.3646 63.3415 87.2066 64.4729 84.0695 64.4713C76.8885 64.4677 69.7074 64.4609 62.5264 64.4537C60.0182 64.4512 58.7133 63.3245 58.6803 60.8595C58.6003 54.8686 58.6042 48.8764 58.6042 42.8847C58.6042 41.5946 58.9702 40.4374 60.4915 39.7873C69.3066 39.7339 77.9135 39.7308 86.5205 39.7278Z" fill="#198ACC"/>
<path d="M91.7256 79.422C91.8208 79.2187 91.916 79.0154 92.164 78.7536C92.399 78.6105 92.4812 78.5258 92.5635 78.4412C92.5635 78.4412 92.5476 78.4719 92.6372 78.4747C93.1283 78.3076 93.5298 78.1377 93.9313 77.9678C95.8674 77.9532 97.8034 77.9386 99.9237 78.0139C100.429 78.0578 100.75 78.0119 101.071 77.966C101.371 77.9521 101.67 77.9382 102.117 78.0052C102.416 78.0459 102.568 78.0057 102.719 77.9656C103.286 77.952 103.852 77.9384 104.56 78.0472C105.251 78.263 105.801 78.3564 106.351 78.4499C106.351 78.4499 106.324 78.4736 106.362 78.5382C106.511 78.6519 106.623 78.7011 106.735 78.7503C106.793 78.7263 106.836 78.7419 106.887 78.9243C106.993 79.136 107.077 79.2208 107.161 79.3055C107.161 79.3055 107.134 79.3007 107.132 79.4191C107.141 90.9228 107.151 102.308 107.162 113.693C107.162 113.693 107.147 113.656 107.084 113.69C106.967 113.89 106.912 114.055 106.858 114.221C106.859 114.317 106.819 114.39 106.583 114.46C106.301 114.589 106.172 114.698 106.044 114.807C106.044 114.807 106.034 114.774 105.919 114.759C101.468 114.751 97.1322 114.76 92.796 114.768C92.796 114.768 92.8267 114.775 92.8127 114.736C92.7263 114.696 92.6538 114.695 92.5813 114.695C92.243 114.3 91.9048 113.906 91.6201 113.334C91.6984 112.976 91.7448 112.796 91.7447 112.616C91.7408 101.551 91.733 90.4867 91.7256 79.422Z" fill="#FB5230"/>
<path d="M54.9669 73.4207C54.7393 73.722 54.5117 74.0233 54.1655 74.3003C54.0129 74.345 53.979 74.4141 53.945 74.4832C53.945 74.4832 53.9176 74.4709 53.8074 74.4371C50.4281 74.7062 47.1591 75.0127 43.9266 74.108C43.9266 74.108 43.9504 74.1039 43.9182 74.0487C43.8053 73.9377 43.7245 73.882 43.6437 73.8264C43.6437 73.8264 43.6717 73.8266 43.6661 73.731C43.4834 72.6639 43.1561 71.6929 43.1521 70.7206C43.1123 60.9457 43.1255 51.1706 43.1239 41.3956C43.886 40.8533 44.6482 40.3109 45.6001 39.8597C48.3011 39.9649 50.8124 39.979 53.3237 39.993C53.3367 39.9445 53.3497 39.8961 53.4041 39.9324C53.6671 40.0486 53.8888 40.0801 54.1104 40.1115C54.5632 40.6675 55.016 41.2234 55.3866 41.964C55.2916 52.3614 55.2788 62.5743 55.266 72.7871C55.266 72.7871 55.2641 72.7341 55.1962 72.7838C55.0745 73.0293 55.0207 73.225 54.9669 73.4207Z" fill="#1E3A8A"/>
<path d="M83.9652 133.258C82.9783 133.687 82.0986 134.545 81.5622 135.575C81.219 136.24 81.1546 136.712 81.219 137.763C81.3692 140.316 83.1713 141.925 85.8103 141.925C87.4623 141.925 87.9986 141.732 89.0928 140.745C91.4314 138.643 91.0023 134.845 88.2776 133.408C87.1619 132.829 85.1452 132.743 83.9652 133.258Z" fill="#FFAA18"/>
<path d="M98.5973 133.322C96.9667 134.094 97.0525 132.657 97.0525 156.343C97.0525 176.725 97.074 177.454 97.4602 178.098C98.0609 179.106 99.434 179.557 101.429 179.428C103.296 179.299 104.283 178.827 104.819 177.755C105.141 177.111 105.205 176.382 105.205 172.734V168.486L106.578 167.07C107.801 165.804 107.994 165.676 108.316 165.955C108.509 166.126 110.633 168.872 113.015 172.069C117.37 177.862 118.486 179.128 119.473 179.385C119.773 179.45 121.103 179.492 122.433 179.45C125.051 179.364 125.802 179.085 126.274 178.076C126.681 177.175 126.167 176.103 123.935 173.228C119.387 167.371 115.16 161.814 114.796 161.213L114.388 160.591L119.322 155.485C125.244 149.392 125.265 149.37 125.265 148.319C125.265 146.86 124.3 146.452 120.846 146.431C118.293 146.431 118.357 146.388 111.706 153.725C107.823 158.016 105.742 160.162 105.441 160.162C105.27 160.162 105.205 156.836 105.205 147.761C105.205 134.094 105.248 134.481 103.854 133.472C102.953 132.807 99.8846 132.721 98.5973 133.322Z" fill="#1E3A8A"/>
<path d="M18.6143 134.287C18.2495 134.459 17.7561 134.845 17.4986 135.167L17.0266 135.768V156.772V177.797L17.7346 178.505C18.2495 179.02 18.7215 179.256 19.451 179.364C20.0088 179.449 24.1496 179.471 28.655 179.407C37.43 179.278 38.4813 179.171 41.3133 178.098C46.8701 176.017 50.1312 171.211 49.7879 165.633C49.5304 161.32 47.4279 157.995 43.7591 156.064L42.3431 155.313L43.4159 154.498C45.1108 153.21 46.6126 150.915 47.1919 148.683C48.1359 145.186 46.7199 140.445 43.9951 137.849C41.9999 135.961 38.7602 134.609 35.306 134.202C32.3882 133.88 19.4295 133.944 18.6143 134.287ZM35.7565 141.925C38.1809 142.848 39.3395 144.435 39.3395 146.881C39.3395 148.641 38.846 149.735 37.5587 150.85C35.9925 152.245 34.9842 152.459 29.9638 152.481C27.6038 152.502 25.5656 152.438 25.4368 152.352C25.0507 152.116 25.0721 142.075 25.4583 141.754C25.9088 141.389 26.8529 141.325 30.7576 141.389C34.0187 141.432 34.6838 141.518 35.7565 141.925ZM37.7304 160.333C39.8544 161.32 41.0344 162.972 41.2275 165.246C41.4849 168.422 39.8758 170.696 36.7649 171.618C35.2845 172.048 25.8659 172.133 25.4368 171.704C25.1579 171.425 25.0507 160.14 25.3296 159.861C25.4154 159.776 28.0114 159.733 31.0794 159.776C36.3787 159.84 36.722 159.861 37.7304 160.333Z" fill="#1E3A8A"/>
<path d="M70.9636 146.431C68.625 147.182 65.7501 149.37 64.1196 151.666C63.6475 152.309 63.2185 152.867 63.1541 152.867C63.0897 152.867 63.0683 151.945 63.1112 150.829C63.197 148.319 62.7465 147.117 61.5021 146.538C60.4723 146.045 57.1039 146.152 56.2671 146.71C55.0657 147.504 55.1086 146.989 55.1086 162.865C55.1086 177.39 55.1086 177.519 55.5591 178.119C56.1813 178.956 57.0181 179.299 58.6272 179.407C60.5152 179.514 61.9955 178.978 62.6606 177.991C63.1541 177.261 63.1541 177.197 63.1541 169.924C63.1541 163.294 63.197 162.436 63.5832 160.913C64.8061 156.15 67.7883 153.94 73.4952 153.597C76.3702 153.404 76.7564 153.168 77.1425 151.365C77.5931 149.113 76.928 146.688 75.6836 146.216C74.804 145.873 72.3796 146.002 70.9636 146.431Z" fill="#1E3A8A"/>
<path d="M83.386 146.538C81.9915 147.139 82.0558 146.581 82.0344 162.865C82.0129 177.025 82.0344 177.647 82.4206 178.162C83.1071 179.085 83.9009 179.364 85.8962 179.364C87.9988 179.342 88.8999 178.999 89.5435 177.905C89.9511 177.24 89.9726 176.725 89.9726 162.736C89.9726 148.598 89.9511 148.233 89.5435 147.546C89.3075 147.16 88.7711 146.688 88.3635 146.517C87.4195 146.13 84.3086 146.13 83.386 146.538Z" fill="#1E3A8A"/>
<path d="M132.324 146.431C131.981 146.538 131.444 146.881 131.144 147.203L130.629 147.761L130.565 162.436C130.5 178.656 130.479 178.227 131.852 178.956C132.839 179.492 135.907 179.514 136.958 178.977C138.374 178.269 138.46 177.948 138.46 172.627V167.864L139.447 166.813C140.005 166.212 140.52 165.74 140.627 165.74C140.82 165.74 143.073 168.486 147.643 174.322C151.59 179.364 151.719 179.471 154.744 179.471C157.919 179.449 159.25 178.656 158.971 176.939C158.906 176.532 158.606 175.824 158.306 175.352C157.683 174.429 148.887 163.316 147.75 162.028C147.342 161.578 147.042 161.084 147.085 160.913C147.128 160.762 149.016 158.638 151.311 156.214C153.607 153.79 155.795 151.344 156.203 150.786C157.383 149.134 157.083 147.461 155.474 146.838C154.808 146.581 152.384 146.581 151.697 146.838C150.839 147.182 149.681 148.297 146.977 151.473C143.759 155.227 139.297 159.947 138.975 159.947C138.825 159.947 138.653 159.797 138.589 159.604C138.524 159.411 138.46 156.729 138.46 153.64V147.997L137.731 147.16L137.001 146.323L135.006 146.281C133.89 146.259 132.689 146.323 132.324 146.431Z" fill="#1E3A8A"/>
</svg>
