<svg width="20" height="19" viewBox="0 0 20 19" fill="none" xmlns="http://www.w3.org/2000/svg">
<path fill-rule="evenodd" clip-rule="evenodd" d="M7.63181 16.6053C7.63181 16.1693 7.98527 15.8158 8.42129 15.8158H11.5792C12.0152 15.8158 12.3687 16.1693 12.3687 16.6053C12.3687 17.0413 12.0152 17.3947 11.5792 17.3947H8.42129C7.98527 17.3947 7.63181 17.0413 7.63181 16.6053Z" fill="#4899D1"/>
<path fill-rule="evenodd" clip-rule="evenodd" d="M4.62943 1.45415C4.84369 1.83389 4.70955 2.31542 4.32982 2.52968C3.58237 2.95143 3.11843 3.75499 3.12691 4.61317C3.13122 5.04916 2.78128 5.4061 2.34528 5.41041C1.90929 5.41472 1.55235 5.06477 1.54804 4.62878C1.53387 3.19536 2.30543 1.85898 3.5539 1.15454C3.93363 0.940273 4.41517 1.07441 4.62943 1.45415Z" fill="#4899D1"/>
<path fill-rule="evenodd" clip-rule="evenodd" d="M15.3679 1.45415C15.5822 1.07442 16.0637 0.940277 16.4435 1.15454C17.6919 1.85898 18.4635 3.19536 18.4493 4.62878C18.445 5.06478 18.0881 5.41472 17.6521 5.41041C17.2161 5.4061 16.8661 5.04917 16.8704 4.61318C16.8789 3.755 16.415 2.95143 15.6675 2.52969C15.2878 2.31542 15.1537 1.83389 15.3679 1.45415Z" fill="#4899D1"/>
<path fill-rule="evenodd" clip-rule="evenodd" d="M6.09254 2.43442C7.12893 1.39803 8.53457 0.815796 10.0002 0.815796C11.4659 0.815796 12.8715 1.39803 13.9079 2.43442C14.9443 3.4708 15.5266 4.87644 15.5266 6.34211C15.5266 8.64159 16.1045 10.1662 16.7103 11.1398L16.7197 11.1549C17.0017 11.6082 17.2247 11.9665 17.375 12.2274C17.4504 12.3581 17.519 12.484 17.5698 12.5959C17.5952 12.6518 17.6235 12.7202 17.6457 12.7947C17.6641 12.8565 17.6992 12.9885 17.686 13.1492C17.6772 13.2572 17.6552 13.4417 17.5493 13.6323C17.4434 13.823 17.2983 13.9392 17.2113 14.0037C17.0137 14.1503 16.7868 14.1838 16.711 14.195L16.7075 14.1955C16.5912 14.2128 16.4591 14.2213 16.3259 14.2265C16.0612 14.2369 15.6948 14.2368 15.2391 14.2368H4.7614C4.3057 14.2368 3.93927 14.2369 3.6746 14.2265C3.54137 14.2213 3.40931 14.2128 3.29293 14.1955L3.28944 14.195C3.21371 14.1838 2.98679 14.1503 2.78919 14.0037C2.70216 13.9392 2.55711 13.823 2.4512 13.6324C2.34529 13.4417 2.32327 13.2572 2.31444 13.1492C2.30129 12.9885 2.33635 12.8565 2.35475 12.7947C2.37692 12.7202 2.4053 12.6518 2.43066 12.5959C2.48148 12.484 2.55011 12.3581 2.62544 12.2274C2.77578 11.9665 2.99879 11.6081 3.28088 11.1548L3.2902 11.1398C3.89602 10.1662 4.47392 8.64159 4.47392 6.34211C4.47392 4.87644 5.05616 3.4708 6.09254 2.43442Z" fill="#4899D1"/>
</svg>
