<svg width="35" height="35" viewBox="0 0 35 35" fill="none" xmlns="http://www.w3.org/2000/svg">
<path d="M13.2497 7.58333H10.4163C8.85153 7.58333 7.58301 8.85186 7.58301 10.4167V27.4167C7.58301 28.9815 8.85153 30.25 10.4163 30.25H24.583C26.1478 30.25 27.4163 28.9815 27.4163 27.4167V10.4167C27.4163 8.85186 26.1478 7.58333 24.583 7.58333H21.7497M13.2497 7.58333C13.2497 9.14814 14.5182 10.4167 16.083 10.4167H18.9163C20.4811 10.4167 21.7497 9.14814 21.7497 7.58333M13.2497 7.58333C13.2497 6.01853 14.5182 4.75 16.083 4.75H18.9163C20.4811 4.75 21.7497 6.01853 21.7497 7.58333M17.4997 17.5H21.7497M17.4997 23.1667H21.7497M13.2497 17.5H13.2638M13.2497 23.1667H13.2638" stroke="#0F0B18" stroke-width="2" stroke-linecap="round"/>
</svg>
