<svg width="35" height="35" viewBox="0 0 35 35" fill="none" xmlns="http://www.w3.org/2000/svg">
<path d="M13.2502 7.58333H10.4168C8.85202 7.58333 7.5835 8.85186 7.5835 10.4167V27.4167C7.5835 28.9815 8.85202 30.25 10.4168 30.25H24.5835C26.1483 30.25 27.4168 28.9815 27.4168 27.4167V10.4167C27.4168 8.85186 26.1483 7.58333 24.5835 7.58333H21.7502M13.2502 7.58333C13.2502 9.14814 14.5187 10.4167 16.0835 10.4167H18.9168C20.4816 10.4167 21.7502 9.14814 21.7502 7.58333M13.2502 7.58333C13.2502 6.01853 14.5187 4.75 16.0835 4.75H18.9168C20.4816 4.75 21.7502 6.01853 21.7502 7.58333M17.5002 17.5H21.7502M17.5002 23.1667H21.7502M13.2502 17.5H13.2643M13.2502 23.1667H13.2643" stroke="#0F0B18" stroke-width="2" stroke-linecap="round"/>
</svg>
