<svg width="59" height="58" viewBox="0 0 59 58" fill="none" xmlns="http://www.w3.org/2000/svg">
<rect x="0.5" width="58" height="58" rx="29" fill="#E9EBF3"/>
<path d="M40.479 44.6845V39.9929V13.3154C40.479 13.0615 40.274 12.8555 40.0214 12.8555H21.3303C19.69 12.8555 18.3555 14.1967 18.3555 15.8452V42.3387C18.3555 43.886 19.6076 45.1444 21.1472 45.1444H40.0214C40.274 45.1444 40.479 44.9384 40.479 44.6845ZM39.5637 39.533H21.788V13.7754H39.5637V39.533ZM21.1472 40.4529H37.96V41.8787H19.333C19.4145 41.5503 19.5784 41.2486 19.8264 41.0048C20.1724 40.6488 20.642 40.4529 21.1472 40.4529ZM19.2708 15.8452C19.2708 14.8627 19.9573 14.0412 20.8726 13.8306V39.5578C20.7848 39.5661 20.6951 39.5688 20.609 39.5854C20.5513 39.5964 20.4973 39.6185 20.4406 39.6332C20.3262 39.6636 20.2108 39.6921 20.1019 39.7363C20.0378 39.762 19.9793 39.7988 19.9179 39.8292C19.8227 39.877 19.7266 39.9221 19.6378 39.981C19.5756 40.0214 19.5207 40.0711 19.4621 40.1162C19.3989 40.1659 19.3303 40.2082 19.2717 40.2634V15.8452H19.2708ZM39.5637 44.2245H21.1472C20.2713 44.2245 19.5399 43.6155 19.334 42.7986H38.4177C38.6703 42.7986 38.8754 42.5926 38.8754 42.3387V40.4529H39.5637V44.2245Z" fill="#4899D1"/>
<path d="M27.1667 23.8945H33.3451C33.5978 23.8945 33.8028 23.6884 33.8028 23.4345V17.915C33.8028 17.6611 33.5978 17.4551 33.3451 17.4551H27.1667C26.914 17.4551 26.709 17.6611 26.709 17.915V23.4345C26.709 23.6893 26.914 23.8945 27.1667 23.8945ZM27.6243 18.375H32.8875V22.9746H27.6243V18.375Z" fill="#4899D1"/>
<path d="M26.0788 29.4139H34.5456C34.7982 29.4139 35.0032 29.2079 35.0032 28.954C35.0032 28.7001 34.7982 28.494 34.5456 28.494H26.0788C25.8261 28.494 25.6211 28.7001 25.6211 28.954C25.6211 29.2079 25.8252 29.4139 26.0788 29.4139Z" fill="#4899D1"/>
</svg>
