<svg width="35" height="35" viewBox="0 0 35 35" fill="none" xmlns="http://www.w3.org/2000/svg">
<path d="M15.8008 3.90002C14.8619 3.90002 14.1008 4.66114 14.1008 5.60002C14.1008 6.53891 14.8619 7.30002 15.8008 7.30002H19.2008C20.1397 7.30002 20.9008 6.53891 20.9008 5.60002C20.9008 4.66114 20.1397 3.90002 19.2008 3.90002H15.8008Z" fill="#4899D1"/>
<path fill-rule="evenodd" clip-rule="evenodd" d="M7.30078 9.00002C7.30078 7.12226 8.82301 5.60002 10.7008 5.60002C10.7008 8.41668 12.9841 10.7 15.8008 10.7H19.2008C22.0174 10.7 24.3008 8.41668 24.3008 5.60002C26.1786 5.60002 27.7008 7.12226 27.7008 9.00002V27.7C27.7008 29.5778 26.1786 31.1 24.3008 31.1H10.7008C8.82301 31.1 7.30078 29.5778 7.30078 27.7V9.00002ZM12.4008 15.8C11.4619 15.8 10.7008 16.5611 10.7008 17.5C10.7008 18.4389 11.4619 19.2 12.4008 19.2H12.4178C13.3567 19.2 14.1178 18.4389 14.1178 17.5C14.1178 16.5611 13.3567 15.8 12.4178 15.8H12.4008ZM17.5008 15.8C16.5619 15.8 15.8008 16.5611 15.8008 17.5C15.8008 18.4389 16.5619 19.2 17.5008 19.2H22.6008C23.5397 19.2 24.3008 18.4389 24.3008 17.5C24.3008 16.5611 23.5397 15.8 22.6008 15.8H17.5008ZM12.4008 22.6C11.4619 22.6 10.7008 23.3611 10.7008 24.3C10.7008 25.2389 11.4619 26 12.4008 26H12.4178C13.3567 26 14.1178 25.2389 14.1178 24.3C14.1178 23.3611 13.3567 22.6 12.4178 22.6H12.4008ZM17.5008 22.6C16.5619 22.6 15.8008 23.3611 15.8008 24.3C15.8008 25.2389 16.5619 26 17.5008 26H22.6008C23.5397 26 24.3008 25.2389 24.3008 24.3C24.3008 23.3611 23.5397 22.6 22.6008 22.6H17.5008Z" fill="#4899D1"/>
</svg>
