<svg width="12" height="13" viewBox="0 0 12 13" fill="none" xmlns="http://www.w3.org/2000/svg">
<g clip-path="url(#clip0_36956_1629)">
<path d="M9.68318 1.42146H9.23558V0.968541C9.23558 0.709766 9.02582 0.5 8.76704 0.5C8.50826 0.5 8.2985 0.709766 8.2985 0.968541V1.42146H3.70148V0.968541C3.70148 0.709766 3.49171 0.5 3.23293 0.5C2.97416 0.5 2.76439 0.709766 2.76439 0.968541V1.42146H2.31682C1.03932 1.42146 0 2.46078 0 3.73825V10.1778C0 11.4553 1.03932 12.4947 2.31682 12.4947H9.6832C10.9607 12.4947 12 11.4553 12 10.1778V3.73825C12 2.46078 10.9607 1.42146 9.68318 1.42146ZM2.31682 2.35854H2.76439V3.2722C2.76439 3.53097 2.97416 3.74074 3.23293 3.74074C3.49171 3.74074 3.70148 3.53097 3.70148 3.2722V2.35854H8.29852V3.2722C8.29852 3.53097 8.50829 3.74074 8.76706 3.74074C9.02584 3.74074 9.23561 3.53097 9.23561 3.2722V2.35854H9.6832C10.444 2.35854 11.0629 2.97748 11.0629 3.73825V4.18585H0.937083V3.73825C0.937083 2.97748 1.55603 2.35854 2.31682 2.35854ZM9.68318 11.5576H2.31682C1.55603 11.5576 0.937083 10.9386 0.937083 10.1778V5.12293H11.0629V10.1778C11.0629 10.9386 10.444 11.5576 9.68318 11.5576ZM4.16222 6.96587C4.16222 7.22465 3.95245 7.43441 3.69368 7.43441H2.77222C2.51344 7.43441 2.30368 7.22465 2.30368 6.96587C2.30368 6.7071 2.51344 6.49733 2.77222 6.49733H3.69368C3.95243 6.49733 4.16222 6.7071 4.16222 6.96587ZM9.69635 6.96587C9.69635 7.22465 9.48658 7.43441 9.2278 7.43441H8.30635C8.04757 7.43441 7.83781 7.22465 7.83781 6.96587C7.83781 6.7071 8.04757 6.49733 8.30635 6.49733H9.2278C9.48656 6.49733 9.69635 6.7071 9.69635 6.96587ZM6.92661 6.96587C6.92661 7.22465 6.71684 7.43441 6.45807 7.43441H5.53661C5.27784 7.43441 5.06807 7.22465 5.06807 6.96587C5.06807 6.7071 5.27784 6.49733 5.53661 6.49733H6.45807C6.71682 6.49733 6.92661 6.7071 6.92661 6.96587ZM4.16222 9.73026C4.16222 9.98904 3.95245 10.1988 3.69368 10.1988H2.77222C2.51344 10.1988 2.30368 9.98904 2.30368 9.73026C2.30368 9.47149 2.51344 9.26172 2.77222 9.26172H3.69368C3.95243 9.26172 4.16222 9.47149 4.16222 9.73026ZM9.69635 9.73026C9.69635 9.98904 9.48658 10.1988 9.2278 10.1988H8.30635C8.04757 10.1988 7.83781 9.98904 7.83781 9.73026C7.83781 9.47149 8.04757 9.26172 8.30635 9.26172H9.2278C9.48656 9.26172 9.69635 9.47149 9.69635 9.73026ZM6.92661 9.73026C6.92661 9.98904 6.71684 10.1988 6.45807 10.1988H5.53661C5.27784 10.1988 5.06807 9.98904 5.06807 9.73026C5.06807 9.47149 5.27784 9.26172 5.53661 9.26172H6.45807C6.71682 9.26172 6.92661 9.47149 6.92661 9.73026Z" fill="#0F0B18"/>
</g>
<defs>
<clipPath id="clip0_36956_1629">
<rect width="12" height="12" fill="white" transform="translate(0 0.5)"/>
</clipPath>
</defs>
</svg>
