<svg width="25" height="24" viewBox="0 0 25 24" fill="none" xmlns="http://www.w3.org/2000/svg">
<circle cx="12.6191" cy="12" r="12" fill="#4899D1"/>
<path d="M8.50499 19H16.2333C16.722 19 17.1191 18.5685 17.1191 18.0373V7.15768C17.1191 6.62656 16.722 6.19502 16.2333 6.19502H15.0954V5.3112C15.0954 5.14108 14.9656 5 14.8091 5C14.6525 5 14.5227 5.14108 14.5227 5.3112V6.19502H12.6555V5.3112C12.6555 5.14108 12.5257 5 12.3691 5C12.2126 5 12.0828 5.14108 12.0828 5.3112V6.19502H10.2156V5.3112C10.2156 5.14108 10.0858 5 9.92923 5C9.77268 5 9.64285 5.14108 9.64285 5.3112V6.19502H8.50499C8.01625 6.19502 7.61914 6.62656 7.61914 7.15768V18.0332C7.61914 18.5643 8.01625 19 8.50499 19ZM8.19189 7.15768C8.19189 6.97095 8.33317 6.81743 8.50499 6.81743H9.64285V7.70954C9.64285 7.87967 9.77268 8.02075 9.92923 8.02075C10.0858 8.02075 10.2156 7.87967 10.2156 7.70954V6.81743H12.0828V7.70954C12.0828 7.87967 12.2126 8.02075 12.3691 8.02075C12.5257 8.02075 12.6555 7.87967 12.6555 7.70954V6.81743H14.5227V7.70954C14.5227 7.87967 14.6525 8.02075 14.8091 8.02075C14.9656 8.02075 15.0954 7.87967 15.0954 7.70954V6.81743H16.2333C16.4051 6.81743 16.5464 6.97095 16.5464 7.15768V18.0332C16.5464 18.2199 16.4051 18.3734 16.2333 18.3734H8.50499C8.33317 18.3734 8.19189 18.2199 8.19189 18.0332V7.15768Z" fill="white"/>
<path d="M9.53939 10.4812C9.59667 10.5435 9.66922 10.5725 9.74176 10.5725C9.81431 10.5725 9.88686 10.5435 9.94414 10.4812L10.956 9.38164C11.0667 9.26131 11.0667 9.06214 10.956 8.94181C10.8453 8.82148 10.662 8.82148 10.5512 8.94181L9.74176 9.82148L9.44775 9.50198C9.33702 9.38165 9.15374 9.38165 9.04301 9.50198C8.93228 9.62231 8.93228 9.82148 9.04301 9.94181L9.53939 10.4812Z" fill="white"/>
<path d="M11.6858 10.0208H15.4927C15.6492 10.0208 15.779 9.87977 15.779 9.70964C15.779 9.53952 15.6492 9.39844 15.4927 9.39844H11.6858C11.5292 9.39844 11.3994 9.53952 11.3994 9.70964C11.3994 9.87977 11.5292 10.0208 11.6858 10.0208Z" fill="white"/>
<path d="M9.53939 13.3693C9.59667 13.4315 9.66922 13.4606 9.74176 13.4606C9.81431 13.4606 9.88686 13.4315 9.94414 13.3693L10.956 12.2697C11.0667 12.1494 11.0667 11.9502 10.956 11.8299C10.8453 11.7095 10.662 11.7095 10.5512 11.8299L9.74176 12.7054L9.44775 12.3859C9.33702 12.2656 9.15374 12.2656 9.04301 12.3859C8.93228 12.5062 8.93228 12.7054 9.04301 12.8257L9.53939 13.3693Z" fill="white"/>
<path d="M11.6858 12.9087H15.4927C15.6492 12.9087 15.779 12.7676 15.779 12.5975C15.779 12.4273 15.6492 12.2863 15.4927 12.2863H11.6858C11.5292 12.2863 11.3994 12.4273 11.3994 12.5975C11.3994 12.7676 11.5292 12.9087 11.6858 12.9087Z" fill="white"/>
<path d="M9.53939 16.2531C9.59667 16.3153 9.66922 16.3444 9.74176 16.3444C9.81431 16.3444 9.88686 16.3153 9.94414 16.2531L10.956 15.1535C11.0667 15.0332 11.0667 14.834 10.956 14.7137C10.8453 14.5933 10.662 14.5933 10.5512 14.7137L9.74176 15.5933L9.44775 15.2738C9.33702 15.1535 9.15374 15.1535 9.04301 15.2738C8.93228 15.3942 8.93228 15.5933 9.04301 15.7137L9.53939 16.2531Z" fill="white"/>
<path d="M11.6858 15.7966H15.4927C15.6492 15.7966 15.779 15.6555 15.779 15.4854C15.779 15.3153 15.6492 15.1742 15.4927 15.1742H11.6858C11.5292 15.1742 11.3994 15.3153 11.3994 15.4854C11.3994 15.6555 11.5292 15.7966 11.6858 15.7966Z" fill="white"/>
</svg>
