<svg width="25" height="24" viewBox="0 0 25 24" fill="none" xmlns="http://www.w3.org/2000/svg">
<circle cx="12.5" cy="12" r="12" fill="#4899D1"/>
<path d="M18.5 10.6666H6.5M15.1667 5.33331V7.99998M9.83333 5.33331V7.99998M10.5 14.6666L11.8333 16L14.8333 13M9.7 18.6666H15.3C16.4201 18.6666 16.9802 18.6666 17.408 18.4487C17.7843 18.2569 18.0903 17.951 18.282 17.5746C18.5 17.1468 18.5 16.5868 18.5 15.4666V9.86665C18.5 8.74654 18.5 8.18649 18.282 7.75867C18.0903 7.38234 17.7843 7.07638 17.408 6.88463C16.9802 6.66665 16.4201 6.66665 15.3 6.66665H9.7C8.5799 6.66665 8.01984 6.66665 7.59202 6.88463C7.21569 7.07638 6.90973 7.38234 6.71799 7.75867C6.5 8.18649 6.5 8.74654 6.5 9.86665V15.4666C6.5 16.5868 6.5 17.1468 6.71799 17.5746C6.90973 17.951 7.21569 18.2569 7.59202 18.4487C8.01984 18.6666 8.5799 18.6666 9.7 18.6666Z" stroke="white" stroke-linecap="round" stroke-linejoin="round"/>
</svg>
