<svg width="25" height="24" viewBox="0 0 25 24" fill="none" xmlns="http://www.w3.org/2000/svg">
<circle cx="12.6699" cy="12" r="12" fill="#4899D1"/>
<path d="M15.6699 13.3333H15.6766M6.66992 7.33333V16.6667C6.66992 17.403 7.26688 18 8.00326 18H17.3366C18.073 18 18.6699 17.403 18.6699 16.6667V10C18.6699 9.26362 18.073 8.66667 17.3366 8.66667L8.00326 8.66667C7.26688 8.66667 6.66992 8.06971 6.66992 7.33333ZM6.66992 7.33333C6.66992 6.59695 7.26688 6 8.00326 6H16.0033M16.0033 13.3333C16.0033 13.5174 15.854 13.6667 15.6699 13.6667C15.4858 13.6667 15.3366 13.5174 15.3366 13.3333C15.3366 13.1492 15.4858 13 15.6699 13C15.854 13 16.0033 13.1492 16.0033 13.3333Z" stroke="white" stroke-linecap="round" stroke-linejoin="round"/>
</svg>
