<svg width="24" height="24" viewBox="0 0 24 24" fill="none" xmlns="http://www.w3.org/2000/svg">
<g clip-path="url(#clip0_34724_1914)">
<path d="M23.8385 9.80872C23.8385 9.80872 24.0001 11.4869 24.0001 12.0424C24.0001 12.6291 23.8385 14.3775 23.8385 14.3775C23.8381 14.3801 23.8378 14.3828 23.8374 14.3853C23.459 17.0067 22.4017 19.3673 20.4722 21.0642L16.5069 18.148C16.8084 17.9538 17.0945 17.7389 17.3631 17.5052C18.3198 16.6734 18.7833 15.6 18.9973 14.3853H12.3047V9.80872H23.8386H23.8385Z" fill="#4386F7"/>
<path d="M20.5277 3.13884L16.9999 6.53029C15.7273 5.49414 14.1727 4.73445 12.3929 4.73445C9.12287 4.73445 6.34305 6.78555 5.32716 9.64307L1.30075 6.68185C3.32847 2.73545 7.51195 0 12.3045 0C15.4404 0 18.3545 1.23639 20.5199 3.13204C20.5225 3.13433 20.5251 3.13654 20.5276 3.13884H20.5277Z" fill="#EE4131"/>
<path d="M20.4721 21.0642C20.4592 21.0757 20.446 21.0871 20.433 21.0985C18.2713 22.978 15.3572 23.9999 12.2362 23.9999C7.44105 23.9999 3.29003 21.3044 1.28348 17.3793L5.31685 14.413C6.32442 17.2854 9.11184 19.3504 12.3929 19.3504C13.9123 19.3504 15.3267 18.9084 16.5069 18.1479L20.4721 21.0641V21.0642Z" fill="#33A951"/>
<path d="M5.31675 14.4131L1.28339 17.3795C0.462098 15.7729 0 13.9605 0 12.0425C0 10.1245 0.469062 8.3001 1.30066 6.68188L5.32706 9.6431C5.05975 10.3947 4.91452 11.202 4.91452 12.0425C4.91452 12.883 5.05604 13.6697 5.31675 14.413V14.4131Z" fill="#FFBE00"/>
</g>
<defs>
<clipPath id="clip0_34724_1914">
<rect width="24" height="24" fill="white"/>
</clipPath>
</defs>
</svg>
