<?xml version="1.0" encoding="UTF-8"?>
<svg version="1.1" xmlns="http://www.w3.org/2000/svg" width="64" height="64">
<path d="M0 0 C3.79701695 1.09010809 6.17531337 3.63373787 8.87365723 6.40858459 C9.4838269 7.01110046 10.09399658 7.61361633 10.72265625 8.23439026 C12.00289261 9.50920085 13.27315426 10.79409842 14.53381348 12.08827209 C16.46222008 14.05953217 18.42961122 15.98444167 20.40490723 17.90858459 C21.64706359 19.15602775 22.88673581 20.40595047 24.12365723 21.65858459 C24.71102661 22.22976013 25.298396 22.80093567 25.90356445 23.38941956 C28.82369272 26.4472503 30.34289535 28.56172054 30.5201416 32.87147522 C30.33773926 34.09028381 30.15533691 35.30909241 29.96740723 36.56483459 C26.96740723 38.56483459 26.96740723 38.56483459 23.96740723 38.56483459 C23.98835449 39.17480286 24.00930176 39.78477112 24.03088379 40.41322327 C24.11433584 43.19275753 24.16615733 45.9720278 24.21740723 48.75233459 C24.26768066 50.19189514 24.26768066 50.19189514 24.31896973 51.66053772 C24.37769158 55.90319149 24.30744597 58.8493364 22.46740723 62.72108459 C18.97397534 65.29749061 15.87244707 65.11591904 11.71740723 64.87733459 C10.9723291 64.854776 10.22725098 64.83221741 9.45959473 64.80897522 C7.62799823 64.7502702 5.7974407 64.66059216 3.96740723 64.56483459 C3.90682129 63.27706116 3.84623535 61.98928772 3.78381348 60.66249084 C3.69942476 58.98409301 3.61477593 57.30570823 3.52990723 55.62733459 C3.49059082 54.77719788 3.45127441 53.92706116 3.4107666 53.05116272 C3.36887207 52.242276 3.32697754 51.43338928 3.28381348 50.59999084 C3.2288269 49.47669373 3.2288269 49.47669373 3.17272949 48.33070374 C3.1496966 46.54022133 3.1496966 46.54022133 1.96740723 45.56483459 C-0.70318128 45.42368298 -3.35691515 45.52236352 -6.03259277 45.56483459 C-7.68239348 48.864436 -7.41517639 52.55611344 -7.59509277 56.18983459 C-7.63827637 56.99163147 -7.68145996 57.79342834 -7.72595215 58.61952209 C-7.83210734 60.6010857 -7.93286133 62.5829373 -8.03259277 64.56483459 C-10.6373816 64.64576589 -13.2396593 64.70528893 -15.84509277 64.75233459 C-16.58308105 64.77747131 -17.32106934 64.80260803 -18.0814209 64.82850647 C-23.51137468 64.90221625 -23.51137468 64.90221625 -25.98181152 63.30311584 C-27.96315173 60.02543409 -28.15569706 56.78426915 -28.13024902 53.01795959 C-28.12541504 51.75145569 -28.12541504 51.75145569 -28.1204834 50.45936584 C-28.11210449 49.58667053 -28.10372559 48.71397522 -28.09509277 47.81483459 C-28.09058105 46.92667053 -28.08606934 46.03850647 -28.0814209 45.12342834 C-28.06966677 42.93716131 -28.05323526 40.75103281 -28.03259277 38.56483459 C-29.23915527 38.37920959 -29.23915527 38.37920959 -30.47009277 38.18983459 C-31.31571777 37.98358459 -32.16134277 37.77733459 -33.03259277 37.56483459 C-34.62932734 34.37136546 -34.43045204 32.09992322 -34.03259277 28.56483459 C-32.43764088 25.9399584 -30.37355704 23.89991962 -28.18884277 21.75624084 C-27.5863269 21.14465622 -26.98381104 20.53307159 -26.36303711 19.9029541 C-25.08710533 18.61789941 -23.80223203 17.34166903 -22.50915527 16.0738678 C-20.54002683 14.13465571 -18.61413571 12.1587912 -16.68884277 10.17616272 C-15.4412534 8.9296048 -14.19132601 7.68538155 -12.93884277 6.44374084 C-12.08207947 5.55798119 -12.08207947 5.55798119 -11.20800781 4.65432739 C-7.69224265 1.27662196 -4.98111938 -0.4112916 0 0 Z M-8.95056152 10.11170959 C-9.52720047 10.67932007 -10.10383942 11.24693054 -10.69795227 11.83174133 C-11.91697201 13.03623307 -13.13318124 14.24357477 -14.34680176 15.45350647 C-16.21087615 17.30567683 -18.09275609 19.13838627 -19.97595215 20.97108459 C-21.15613512 22.14180495 -22.3352098 23.31364383 -23.51306152 24.48670959 C-24.08066696 25.03478271 -24.6482724 25.58285583 -25.233078 26.14753723 C-26.98625833 27.86295861 -26.98625833 27.86295861 -29.03259277 30.56483459 C-29.04157909 32.89617687 -29.04157909 32.89617687 -28.03259277 34.56483459 C-26.38259277 34.56483459 -24.73259277 34.56483459 -23.03259277 34.56483459 C-23.04830322 35.28139221 -23.06401367 35.99794983 -23.0802002 36.73622131 C-23.14241141 39.97067936 -23.18153927 43.20501179 -23.22009277 46.43983459 C-23.24522949 47.56776428 -23.27036621 48.69569397 -23.29626465 49.85780334 C-23.30593262 50.93417053 -23.31560059 52.01053772 -23.32556152 53.11952209 C-23.34127197 54.11451721 -23.35698242 55.10951233 -23.37316895 56.13465881 C-23.26077881 56.93661682 -23.14838867 57.73857483 -23.03259277 58.56483459 C-19.94370755 60.62409141 -19.3232335 60.803872 -15.84509277 60.68983459 C-14.58696777 60.64858459 -13.32884277 60.60733459 -12.03259277 60.56483459 C-11.9836084 59.36085022 -11.93462402 58.15686584 -11.88415527 56.91639709 C-11.80912935 55.34085262 -11.73358144 53.76533293 -11.65759277 52.18983459 C-11.62665527 51.39577209 -11.59571777 50.60170959 -11.56384277 49.78358459 C-11.25915527 43.79139709 -11.25915527 43.79139709 -9.03259277 41.56483459 C-5.88024902 41.19374084 -5.88024902 41.19374084 -2.09509277 41.12733459 C-0.84856934 41.08737366 0.3979541 41.04741272 1.68225098 41.00624084 C4.96740723 41.56483459 4.96740723 41.56483459 6.86584473 43.63514709 C8.182123 47.1358872 8.48047368 50.14445668 8.65490723 53.87733459 C8.72064941 55.13159241 8.7863916 56.38585022 8.85412598 57.67811584 C8.9102002 59.10704163 8.9102002 59.10704163 8.96740723 60.56483459 C12.97750062 60.74348091 12.97750062 60.74348091 16.96740723 60.56483459 C19.21120124 58.74654876 19.21120124 58.74654876 19.19445801 56.13465881 C19.17874756 54.64216614 19.17874756 54.64216614 19.16271973 53.11952209 C19.15305176 51.50497131 19.15305176 51.50497131 19.14318848 49.85780334 C19.12643066 48.72987366 19.10967285 47.60194397 19.09240723 46.43983459 C19.08338379 45.30417053 19.07436035 44.16850647 19.06506348 42.99842834 C19.04143821 40.18702161 19.00849736 37.37603161 18.96740723 34.56483459 C21.27740723 34.23483459 23.58740723 33.90483459 25.96740723 33.56483459 C24.34465574 29.48846338 21.430249 26.73871417 18.37365723 23.70545959 C17.82632935 23.15621826 17.27900146 22.60697693 16.71508789 22.04109192 C15.56092942 20.885576 14.40425556 19.73256774 13.24523926 18.58192444 C11.46666776 16.8140996 9.69905959 15.03581329 7.93225098 13.25624084 C6.80919415 12.13450488 5.68551747 11.01338909 4.56115723 9.89295959 C4.03090942 9.35866333 3.50066162 8.82436707 2.9543457 8.27388 C-2.59524727 2.79512231 -4.01202213 5.22033381 -8.95056152 10.11170959 Z " fill="#000000" transform="translate(34.0325927734375,-0.5648345947265625)"/>
</svg>
