<svg width="35" height="35" viewBox="0 0 35 35" fill="none" xmlns="http://www.w3.org/2000/svg">
<path d="M18.702 4.39794C18.0381 3.73405 16.9617 3.73405 16.2978 4.39794L4.39782 16.2979C3.73393 16.9618 3.73393 18.0382 4.39782 18.7021C5.06171 19.366 6.13809 19.366 6.80198 18.7021L7.2999 18.2042V29.4C7.2999 30.3389 8.06102 31.1 8.9999 31.1H12.3999C13.3388 31.1 14.0999 30.3389 14.0999 29.4V26C14.0999 25.0611 14.861 24.3 15.7999 24.3H19.1999C20.1388 24.3 20.8999 25.0611 20.8999 26V29.4C20.8999 30.3389 21.661 31.1 22.5999 31.1H25.9999C26.9388 31.1 27.6999 30.3389 27.6999 29.4V18.2042L28.1978 18.7021C28.8617 19.366 29.9381 19.366 30.602 18.7021C31.2659 18.0382 31.2659 16.9618 30.602 16.2979L18.702 4.39794Z" fill="#4899D1"/>
</svg>
