<svg width="35" height="35" viewBox="0 0 35 35" fill="none" xmlns="http://www.w3.org/2000/svg">
<path d="M4.75 17.5L7.58333 14.6667M7.58333 14.6667L17.5 4.75L27.4167 14.6667M7.58333 14.6667V28.8333C7.58333 29.6157 8.2176 30.25 9 30.25H13.25M27.4167 14.6667L30.25 17.5M27.4167 14.6667V28.8333C27.4167 29.6157 26.7824 30.25 26 30.25H21.75M13.25 30.25C14.0324 30.25 14.6667 29.6157 14.6667 28.8333V23.1667C14.6667 22.3843 15.3009 21.75 16.0833 21.75H18.9167C19.6991 21.75 20.3333 22.3843 20.3333 23.1667V28.8333C20.3333 29.6157 20.9676 30.25 21.75 30.25M13.25 30.25H21.75" stroke="#0F0B18" stroke-width="2" stroke-linecap="round" stroke-linejoin="round"/>
</svg>
