<svg width="17" height="16" viewBox="0 0 17 16" fill="none" xmlns="http://www.w3.org/2000/svg">
<path d="M1.25 15.25H15.75V0.75H1.25V15.25ZM1.75 14.75V5H15.25V14.75H1.75ZM15.25 1.25V4.5H1.75V1.25H15.25Z" fill="#4F4F59"/>
<path d="M8.5 5.75C6.15 5.75 4.25 7.65 4.25 10C4.25 12.35 6.15 14.25 8.5 14.25C10.85 14.25 12.75 12.35 12.75 10C12.75 7.65 10.85 5.75 8.5 5.75ZM8.5 13.75C6.55 13.75 4.95 12.25 4.775 10.35C5.575 10.275 6 10.45 6.45 10.65C6.825 10.825 7.225 11 7.8 11C7.975 11 8.2 10.975 8.425 10.95C9.45 10.775 9.925 10.975 10.45 11.2C10.825 11.375 11.225 11.55 11.8 11.55C11.85 11.55 11.9 11.55 11.95 11.55C11.325 12.825 10.025 13.75 8.5 13.75ZM12.1 11C11.45 11.075 11.05 10.925 10.625 10.725C10.1 10.475 9.475 10.225 8.3 10.425C7.5 10.575 7.1 10.4 6.625 10.175C6.15 9.975 5.625 9.725 4.725 9.825C4.8 7.825 6.45 6.225 8.475 6.225C10.55 6.225 12.225 7.9 12.225 9.975C12.25 10.35 12.2 10.7 12.1 11Z" fill="#4F4F59"/>
<path d="M9.75 3.5C10.175 3.5 10.5 3.175 10.5 2.75C10.5 2.325 10.175 2 9.75 2C9.325 2 9 2.325 9 2.75C9 3.175 9.325 3.5 9.75 3.5ZM9.75 2.5C9.9 2.5 10 2.6 10 2.75C10 2.9 9.9 3 9.75 3C9.6 3 9.5 2.9 9.5 2.75C9.5 2.6 9.6 2.5 9.75 2.5Z" fill="#4F4F59"/>
<path d="M11.75 3.5C12.175 3.5 12.5 3.175 12.5 2.75C12.5 2.325 12.175 2 11.75 2C11.325 2 11 2.325 11 2.75C11 3.175 11.325 3.5 11.75 3.5ZM11.75 2.5C11.9 2.5 12 2.6 12 2.75C12 2.9 11.9 3 11.75 3C11.6 3 11.5 2.9 11.5 2.75C11.5 2.6 11.6 2.5 11.75 2.5Z" fill="#4F4F59"/>
<path d="M13.75 3.5C14.175 3.5 14.5 3.175 14.5 2.75C14.5 2.325 14.175 2 13.75 2C13.325 2 13 2.325 13 2.75C13 3.175 13.325 3.5 13.75 3.5ZM13.75 2.5C13.9 2.5 14 2.6 14 2.75C14 2.9 13.9 3 13.75 3C13.6 3 13.5 2.9 13.5 2.75C13.5 2.6 13.6 2.5 13.75 2.5Z" fill="#4F4F59"/>
</svg>
