<svg width="25" height="24" viewBox="0 0 25 24" fill="none" xmlns="http://www.w3.org/2000/svg">
<circle cx="12.5" cy="12" r="12" fill="#4899D1"/>
<path d="M9.5 12H9.50667M12.5 12H12.5067M15.5 12H15.5067M12.5 18C15.8137 18 18.5 15.3137 18.5 12C18.5 8.68629 15.8137 6 12.5 6C9.18629 6 6.5 8.68629 6.5 12C6.5 12.7981 6.65582 13.5598 6.93871 14.2563C6.99285 14.3897 7.01992 14.4563 7.032 14.5102C7.04381 14.5629 7.04813 14.6019 7.04814 14.6559C7.04814 14.7111 7.03812 14.7713 7.01807 14.8916L6.62275 17.2635C6.58135 17.5119 6.56065 17.6361 6.59917 17.7259C6.63289 17.8045 6.69552 17.8671 6.77412 17.9008C6.86393 17.9393 6.98812 17.9186 7.23651 17.8772L9.60843 17.4819C9.72872 17.4619 9.78887 17.4519 9.84409 17.4519C9.8981 17.4519 9.93711 17.4562 9.98981 17.468C10.0437 17.4801 10.1103 17.5072 10.2437 17.5613C10.9402 17.8442 11.7019 18 12.5 18ZM9.83333 12C9.83333 12.1841 9.6841 12.3333 9.5 12.3333C9.31591 12.3333 9.16667 12.1841 9.16667 12C9.16667 11.8159 9.31591 11.6667 9.5 11.6667C9.6841 11.6667 9.83333 11.8159 9.83333 12ZM12.8333 12C12.8333 12.1841 12.6841 12.3333 12.5 12.3333C12.3159 12.3333 12.1667 12.1841 12.1667 12C12.1667 11.8159 12.3159 11.6667 12.5 11.6667C12.6841 11.6667 12.8333 11.8159 12.8333 12ZM15.8333 12C15.8333 12.1841 15.6841 12.3333 15.5 12.3333C15.3159 12.3333 15.1667 12.1841 15.1667 12C15.1667 11.8159 15.3159 11.6667 15.5 11.6667C15.6841 11.6667 15.8333 11.8159 15.8333 12Z" stroke="white" stroke-linecap="round" stroke-linejoin="round"/>
</svg>
