<svg width="12" height="12" viewBox="0 0 12 12" fill="none" xmlns="http://www.w3.org/2000/svg">
<g clip-path="url(#clip0_35543_2396)">
<path d="M11.3176 5.11371C11.1329 4.97754 10.9002 4.80745 10.872 4.69633C10.8839 4.48123 10.9453 4.27178 11.0515 4.08435C11.2143 3.7108 11.3823 3.32369 11.1955 3.00178C11.0087 2.67988 10.5841 2.62771 10.1756 2.5844C9.96382 2.58298 9.75521 2.5332 9.56566 2.43884C9.47116 2.24862 9.42154 2.03927 9.42061 1.82687C9.37471 1.41837 9.32722 0.995776 9.00323 0.806906C8.67924 0.618037 8.2916 0.783429 7.91807 0.948283C7.73043 1.05444 7.52083 1.11586 7.30558 1.12776C7.19289 1.09751 7.02334 0.866896 6.8882 0.682208C6.65135 0.362918 6.38473 0.000854492 5.99971 0.000854492C5.61468 0.000854492 5.34809 0.362918 5.11278 0.682208C4.9761 0.867409 4.80653 1.09959 4.6954 1.12828C4.48033 1.11532 4.27096 1.05397 4.08291 0.948797C3.70728 0.783405 3.32017 0.61855 2.99932 0.80429C2.67846 0.990029 2.62473 1.41575 2.5788 1.82685C2.57731 2.03851 2.52771 2.24707 2.43376 2.43674C2.24458 2.52974 2.03677 2.57861 1.82597 2.57968C1.41695 2.62559 0.993821 2.67308 0.80549 2.99706C0.617158 3.32105 0.782575 3.7082 0.947429 4.08227C1.05398 4.27031 1.11542 4.48051 1.12691 4.69633C1.09666 4.80902 0.866041 4.9791 0.681354 5.11371C0.362063 5.34848 0 5.61561 0 6.00063C0 6.38566 0.362063 6.65279 0.681892 6.88756C0.866579 7.02373 1.09927 7.19382 1.12745 7.30494C1.11561 7.52004 1.05418 7.72949 0.947967 7.91692C0.785192 8.29047 0.617207 8.67758 0.803973 8.99949C0.99074 9.32139 1.41543 9.37356 1.82394 9.41687C2.03567 9.41829 2.24428 9.46807 2.43383 9.56242C2.52833 9.75265 2.57795 9.962 2.57888 10.1744C2.62478 10.5829 2.67227 11.0055 2.99626 11.1944C3.32024 11.3832 3.70476 11.2131 4.07883 11.0504C4.26833 10.9454 4.47917 10.8847 4.6955 10.873C4.80819 10.9032 4.97774 11.1339 5.11288 11.3185C5.34817 11.6378 5.61478 11.9999 5.9998 11.9999C6.38483 11.9999 6.65142 11.6378 6.88673 11.3185C7.02341 11.1333 7.19299 10.9012 7.30411 10.8725C7.51932 10.8846 7.72886 10.9461 7.9166 11.052C8.29016 11.2147 8.67726 11.3817 8.99863 11.1965C9.32 11.0113 9.37322 10.585 9.41914 10.176C9.42063 9.96432 9.47023 9.75577 9.56419 9.56609C9.75372 9.47233 9.96209 9.42291 10.1735 9.42159C10.5826 9.37568 11.0057 9.32819 11.194 9.0042C11.3824 8.68022 11.2123 8.29571 11.05 7.92164C10.9438 7.73264 10.8831 7.52151 10.8727 7.30497C10.9029 7.19228 11.1335 7.02219 11.3182 6.88758C11.6375 6.6523 12.0001 6.38517 12.0001 6.00066C12.0001 5.61615 11.6374 5.34848 11.3176 5.11371Z" fill="#F7A51D"/>
<path d="M4.43441 7.30464C4.39392 7.30463 4.35398 7.2952 4.31776 7.27709C4.28154 7.25898 4.25003 7.23268 4.22574 7.20028L3.13013 5.73949V7.04377C3.13013 7.18784 3.01333 7.30464 2.86926 7.30464C2.7252 7.30464 2.6084 7.18784 2.6084 7.04377V4.95691C2.6084 4.81284 2.7252 4.69604 2.86926 4.69604C2.95136 4.69604 3.02869 4.73471 3.07794 4.8004L4.17355 6.26119V4.95691C4.17355 4.81284 4.29035 4.69604 4.43441 4.69604C4.57848 4.69604 4.69528 4.81284 4.69528 4.95691V7.04377C4.69524 7.0985 4.67799 7.15182 4.64597 7.19621C4.61395 7.24059 4.56878 7.27377 4.51685 7.29106C4.4903 7.30006 4.46245 7.30464 4.43441 7.30464ZM6.5213 7.30464H5.47785C5.33379 7.30464 5.21699 7.18784 5.21699 7.04377V4.95691C5.21699 4.81284 5.33379 4.69604 5.47785 4.69604H6.5213C6.66536 4.69604 6.78216 4.81284 6.78216 4.95691C6.78216 5.10098 6.66536 5.21778 6.5213 5.21778H5.73872V6.78293H6.5213C6.66536 6.78293 6.78216 6.89973 6.78216 7.04379C6.78216 7.18786 6.66536 7.30464 6.5213 7.30464Z" fill="white"/>
<path d="M6.5211 6.26118H5.47766C5.3336 6.26118 5.2168 6.14438 5.2168 6.00032C5.2168 5.85625 5.3336 5.73945 5.47766 5.73945H6.5211C6.66517 5.73945 6.78197 5.85625 6.78197 6.00032C6.78197 6.14438 6.66517 6.26118 6.5211 6.26118ZM9.12967 7.30462C9.07486 7.30469 9.02141 7.2875 8.97693 7.25547C8.93244 7.22344 8.89918 7.1782 8.88186 7.1262L8.60796 6.30344L8.33406 7.1262C8.31789 7.18083 8.28349 7.22828 8.2366 7.26065C8.18971 7.29302 8.13315 7.30836 8.07632 7.30411C8.01992 7.30197 7.96573 7.28159 7.92189 7.24603C7.87806 7.21047 7.84694 7.16165 7.83321 7.1069L7.31151 5.02004C7.27663 4.88016 7.36179 4.73849 7.50167 4.70361C7.64156 4.66874 7.78323 4.75389 7.8181 4.89378L8.12225 6.11147L8.36067 5.39619C8.42266 5.25946 8.58375 5.19889 8.72048 5.26088C8.78049 5.2881 8.82858 5.33618 8.85579 5.39619L9.09421 6.11147L9.39836 4.89378C9.43324 4.75389 9.57488 4.66874 9.71479 4.70361C9.85468 4.73849 9.93983 4.88013 9.90496 5.02004L9.38325 7.1069C9.36952 7.16165 9.3384 7.21047 9.29457 7.24603C9.25073 7.28159 9.19654 7.30197 9.14014 7.30411L9.12967 7.30462Z" fill="white"/>
</g>
<defs>
<clipPath id="clip0_35543_2396">
<rect width="12" height="12" fill="white"/>
</clipPath>
</defs>
</svg>
