<svg width="59" height="59" viewBox="0 0 59 59" fill="none" xmlns="http://www.w3.org/2000/svg">
<rect x="0.5" y="0.5" width="58" height="58" rx="29" fill="#E9EBF3"/>
<path d="M25.2507 19.5833H22.4173C20.8525 19.5833 19.584 20.8519 19.584 22.4167V39.4167C19.584 40.9815 20.8525 42.25 22.4173 42.25H36.584C38.1488 42.25 39.4173 40.9815 39.4173 39.4167V22.4167C39.4173 20.8519 38.1488 19.5833 36.584 19.5833H33.7507M25.2507 19.5833C25.2507 21.1481 26.5192 22.4167 28.084 22.4167H30.9173C32.4821 22.4167 33.7507 21.1481 33.7507 19.5833M25.2507 19.5833C25.2507 18.0185 26.5192 16.75 28.084 16.75H30.9173C32.4821 16.75 33.7507 18.0185 33.7507 19.5833M29.5007 29.5H33.7507M29.5007 35.1667H33.7507M25.2507 29.5H25.2648M25.2507 35.1667H25.2648" stroke="#4899D1" stroke-width="2" stroke-linecap="round"/>
</svg>
