<svg width="16" height="17" viewBox="0 0 16 17" fill="none" xmlns="http://www.w3.org/2000/svg">
<path d="M1.59961 2.89998C1.59961 2.45815 1.95778 2.09998 2.39961 2.09998H4.12191C4.51298 2.09998 4.84673 2.38271 4.91102 2.76846L5.50247 6.31716C5.56021 6.66358 5.38525 7.00715 5.07113 7.16422L3.83262 7.78347C4.72566 10.0026 6.49695 11.7739 8.71611 12.667L9.33537 11.4285C9.49243 11.1143 9.836 10.9394 10.1824 10.9971L13.7311 11.5886C14.1169 11.6529 14.3996 11.9866 14.3996 12.3777V14.1C14.3996 14.5418 14.0414 14.9 13.5996 14.9H11.9996C6.25585 14.9 1.59961 10.2437 1.59961 4.49998V2.89998Z" fill="#1B2D51"/>
</svg>
