<svg width="21" height="20" viewBox="0 0 21 20" fill="none" xmlns="http://www.w3.org/2000/svg">
<path d="M18.4955 1.21461C18.1657 1.10443 17.8586 1.18411 17.706 1.22845C17.5396 1.27677 17.3413 1.35418 17.1424 1.43185L3.0115 6.94635C2.78914 7.03309 2.57377 7.11711 2.40754 7.1993C2.26391 7.27032 1.95863 7.42839 1.78822 7.7564C1.6003 8.11812 1.60055 8.54874 1.7889 8.91024C1.95969 9.23805 2.26516 9.39576 2.40887 9.46661C2.57519 9.5486 2.79063 9.63235 3.01308 9.71883L8.60583 11.8938L10.7808 17.4865C10.8672 17.7089 10.951 17.9244 11.033 18.0907C11.1039 18.2345 11.2616 18.5399 11.5894 18.7107C11.9509 18.8991 12.3815 18.8993 12.7432 18.7114C13.0712 18.541 13.2293 18.2357 13.3003 18.0921C13.3825 17.9258 13.4665 17.7105 13.5532 17.4881L19.0678 3.3572C19.1454 3.15827 19.2228 2.96001 19.2712 2.79364C19.3155 2.64099 19.3952 2.33394 19.285 2.00413C19.1605 1.63151 18.8681 1.33909 18.4955 1.21461Z" fill="#4899D1"/>
</svg>
