<svg width="35" height="35" viewBox="0 0 35 35" fill="none" xmlns="http://www.w3.org/2000/svg">
<path d="M6.1665 8.99996C6.1665 7.43515 7.43503 6.16663 8.99984 6.16663H11.8332C13.398 6.16663 14.6665 7.43515 14.6665 8.99996V11.8333C14.6665 13.3981 13.398 14.6666 11.8332 14.6666H8.99984C7.43503 14.6666 6.1665 13.3981 6.1665 11.8333V8.99996Z" stroke="#0F0B18" stroke-width="2" stroke-linecap="round" stroke-linejoin="round"/>
<path d="M20.3332 8.99996C20.3332 7.43515 21.6017 6.16663 23.1665 6.16663H25.9998C27.5646 6.16663 28.8332 7.43515 28.8332 8.99996V11.8333C28.8332 13.3981 27.5646 14.6666 25.9998 14.6666H23.1665C21.6017 14.6666 20.3332 13.3981 20.3332 11.8333V8.99996Z" stroke="#0F0B18" stroke-width="2" stroke-linecap="round" stroke-linejoin="round"/>
<path d="M6.1665 23.1666C6.1665 21.6018 7.43503 20.3333 8.99984 20.3333H11.8332C13.398 20.3333 14.6665 21.6018 14.6665 23.1666V26C14.6665 27.5648 13.398 28.8333 11.8332 28.8333H8.99984C7.43503 28.8333 6.1665 27.5648 6.1665 26V23.1666Z" stroke="#0F0B18" stroke-width="2" stroke-linecap="round" stroke-linejoin="round"/>
<path d="M20.3332 23.1666C20.3332 21.6018 21.6017 20.3333 23.1665 20.3333H25.9998C27.5646 20.3333 28.8332 21.6018 28.8332 23.1666V26C28.8332 27.5648 27.5646 28.8333 25.9998 28.8333H23.1665C21.6017 28.8333 20.3332 27.5648 20.3332 26V23.1666Z" stroke="#0F0B18" stroke-width="2" stroke-linecap="round" stroke-linejoin="round"/>
</svg>
