<svg width="35" height="35" viewBox="0 0 35 35" fill="none" xmlns="http://www.w3.org/2000/svg">
<path d="M33.5371 22.7036C32.9355 21.6611 31.5967 21.2972 30.4904 21.8756L23.543 25.504C23.4932 25.3433 23.4254 25.1872 23.3391 25.0378C23.0389 24.5179 22.5562 24.1467 21.9804 23.9926L11.8043 21.2659C11.6875 21.2341 11.6868 21.2341 10.9012 21.4891C9.9516 21.7979 8.14801 22.3836 7.25551 22.6538V21.2972C7.25551 21.0774 7.07688 20.8987 6.85707 20.8987H1.5625C1.3427 20.8987 1.16406 21.0774 1.16406 21.2972V33.4375C1.16406 33.6574 1.3427 33.836 1.5625 33.836H6.85707C7.07688 33.836 7.25551 33.6574 7.25551 33.4375V32.0397L11.2837 32.8366C11.5693 32.893 11.8289 32.9189 12.1138 32.9189C12.1443 32.9189 12.1755 32.9189 12.2068 32.9183L19.9657 32.7715C20.3621 32.7735 20.7546 32.6712 21.0986 32.4727L32.7163 25.765C33.7868 25.1474 34.1547 23.7741 33.5371 22.7036ZM6.45863 33.0391H1.96094V21.6956H6.45863V33.0391ZM32.3186 25.075L20.7001 31.7827C20.4777 31.9109 20.226 31.9799 19.9677 31.9746H19.9557L12.1915 32.1214C11.9252 32.1267 11.7001 32.1068 11.4384 32.055L7.25551 31.2275V23.4852C8.04707 23.2542 10.0313 22.6093 11.1469 22.2468C11.3787 22.1717 11.5892 22.1033 11.708 22.0648L21.7739 24.7622C22.1445 24.8618 22.4552 25.1009 22.6491 25.4363C22.843 25.7716 22.8948 26.1608 22.7952 26.5313C22.6956 26.9018 22.4566 27.2126 22.1212 27.4065C21.7859 27.6004 21.3967 27.6522 21.0262 27.5526L14.1611 25.7132C13.9486 25.6567 13.7301 25.7822 13.673 25.9947C13.6159 26.2072 13.7421 26.4257 13.9546 26.4828L20.8196 28.3223C21.3961 28.4763 21.9997 28.3967 22.519 28.0965C23.0389 27.7963 23.4102 27.3136 23.5642 26.7378C23.5981 26.6117 23.6207 26.4841 23.632 26.3567L30.8583 22.5828C31.5854 22.2029 32.458 22.432 32.8458 23.1034C33.2449 23.792 33.0079 24.6772 32.3186 25.075ZM8.89109 20.3628C9.34782 20.4856 9.81867 20.5478 10.2916 20.5481C11.2233 20.5481 12.143 20.3037 12.9718 19.8256C15.5397 18.3427 16.4229 15.047 14.94 12.4791C13.4572 9.91114 10.1614 9.02794 7.59352 10.5108C6.34973 11.2293 5.45922 12.3888 5.08801 13.7767C4.71613 15.1645 4.90672 16.6135 5.62523 17.8573C6.34375 19.1011 7.50387 19.9909 8.89109 20.3628ZM5.85832 13.9825C6.17508 12.8005 6.93277 11.8124 7.99262 11.2008C8.68636 10.7989 9.47395 10.5875 10.2757 10.5878C11.8601 10.5878 13.4034 11.4099 14.2507 12.8775C15.5138 15.0649 14.7614 17.8726 12.574 19.1356C11.8802 19.5375 11.0927 19.7489 10.2909 19.7486C8.70648 19.7486 7.1632 18.9265 6.31586 17.4589C5.70359 16.399 5.54156 15.1645 5.85832 13.9825ZM11.2034 16.4462C11.2034 16.0451 11.044 15.5663 10.2836 15.5663C9.24105 15.5663 8.56703 14.9082 8.56703 13.8895C8.56703 13.0993 9.13016 12.4352 9.8852 12.2593V11.7167C9.8852 11.4969 10.0638 11.3183 10.2836 11.3183C10.5034 11.3183 10.6821 11.4969 10.6821 11.7167V12.2593C11.4371 12.4352 12.0002 13.0993 12.0002 13.8895C12.0002 14.1093 11.8216 14.288 11.6018 14.288C11.382 14.288 11.2034 14.1093 11.2034 13.8895C11.2034 13.4048 10.791 13.0097 10.2836 13.0097C9.77629 13.0097 9.36391 13.4041 9.36391 13.8895C9.36391 14.2906 9.52328 14.7694 10.2836 14.7694C11.3262 14.7694 12.0002 15.4275 12.0002 16.4462C12.0002 17.2364 11.4371 17.9005 10.6821 18.0765V18.619C10.6821 18.8388 10.5034 19.0174 10.2836 19.0174C10.0638 19.0174 9.8852 18.8388 9.8852 18.619V18.0765C9.13016 17.9005 8.56703 17.2364 8.56703 16.4462C8.56703 16.2264 8.74566 16.0477 8.96547 16.0477C9.18527 16.0477 9.36391 16.2264 9.36391 16.4462C9.36391 16.9309 9.77629 17.3261 10.2836 17.3261C10.791 17.3261 11.2034 16.9309 11.2034 16.4462ZM23.7269 11.1715C23.5091 10.88 23.1073 10.7977 22.7919 10.9796L21.5773 11.6809C21.4249 11.7687 21.3101 11.9095 21.2546 12.0765C21.1991 12.2435 21.2069 12.425 21.2765 12.5867C21.3575 12.7746 21.3257 12.9698 21.1895 13.1219C21.0096 13.3238 20.8436 13.5402 20.6955 13.7654C20.5832 13.936 20.4033 14.017 20.2014 13.9878C19.8408 13.9354 19.4988 14.1618 19.4045 14.5131L19.0413 15.8684C18.947 16.2197 19.1309 16.587 19.4683 16.7218C19.6575 16.7975 19.7731 16.9575 19.785 17.1614C19.801 17.4303 19.8362 17.7013 19.8913 17.9656C19.9325 18.1654 19.8627 18.3507 19.6987 18.4729C19.4072 18.6907 19.3248 19.0925 19.5068 19.4079L20.208 20.6225C20.39 20.9379 20.7791 21.0674 21.1138 20.9233C21.3018 20.8423 21.497 20.8741 21.6491 21.0103C21.8503 21.1902 22.0668 21.3563 22.2925 21.5043C22.4632 21.6166 22.5442 21.7965 22.515 21.9984C22.4901 22.1725 22.5297 22.3497 22.6265 22.4965C22.7233 22.6433 22.8705 22.7496 23.0403 22.7953L24.395 23.1585C24.4567 23.1751 24.5198 23.1831 24.5809 23.1831C24.8684 23.1831 25.1367 23.0091 25.2476 22.7309C25.3233 22.5416 25.4834 22.4261 25.6872 22.4141C25.9562 22.3982 26.2264 22.363 26.4914 22.3079C26.6913 22.2667 26.8766 22.3364 26.9988 22.5004C27.2166 22.792 27.6183 22.875 27.9338 22.693L29.1483 21.9918C29.4631 21.8105 29.5939 21.424 29.4538 21.094C29.3741 20.9074 29.406 20.7128 29.5408 20.5614C29.7221 20.3568 29.8894 20.1377 30.0382 19.9093C30.1484 19.7406 30.3257 19.6589 30.5256 19.6842C30.8928 19.7326 31.2282 19.5108 31.3218 19.1595L31.685 17.8042C31.7807 17.4469 31.5967 17.0797 31.2574 16.9495C31.0648 16.8758 30.9466 16.7158 30.9333 16.5093C30.9164 16.2421 30.8804 15.9765 30.8257 15.7144C30.7832 15.5132 30.8543 15.3272 31.019 15.205C31.3158 14.9852 31.4015 14.5808 31.2189 14.2647L30.5176 13.0502C30.3337 12.7321 29.9319 12.6013 29.6025 12.7527C29.4126 12.8397 29.2134 12.8104 29.0573 12.6716C28.8597 12.4969 28.65 12.3362 28.4298 12.1909C28.2558 12.076 28.1755 11.8927 28.2093 11.6868C28.2698 11.3209 28.0446 10.973 27.6861 10.8767L26.3307 10.5134C25.9794 10.4192 25.6122 10.6031 25.4774 10.9404C25.4017 11.1297 25.2416 11.2452 25.0378 11.2572C24.7682 11.2731 24.4979 11.309 24.2336 11.3634C24.0337 11.4059 23.8491 11.3356 23.7269 11.1715ZM24.3956 12.1444C24.6221 12.0972 24.8538 12.0667 25.0843 12.0534C25.5704 12.0249 25.988 11.7386 26.1899 11.301L27.4131 11.6284C27.3587 12.1172 27.5765 12.5827 27.9915 12.8563C28.1795 12.9798 28.3601 13.1186 28.5287 13.268C28.9006 13.5974 29.4046 13.6857 29.8615 13.5077L30.4944 14.6034C30.1159 14.9122 29.9445 15.395 30.0455 15.8777C30.0926 16.1022 30.1238 16.3313 30.1378 16.5584C30.1683 17.0465 30.4572 17.4629 30.8975 17.6621L30.5694 18.8866C30.0833 18.8441 29.6391 19.0606 29.3701 19.473C29.2418 19.6691 29.0996 19.8558 28.9445 20.0315C28.6244 20.392 28.5314 20.8848 28.6928 21.3337L27.5944 21.9679C27.2856 21.5967 26.8082 21.428 26.33 21.5269C26.1029 21.5741 25.8718 21.6046 25.6414 21.6179C25.1553 21.6465 24.7376 21.9327 24.5357 22.3703L23.3119 22.0422C23.3564 21.5621 23.1372 21.1052 22.7308 20.8376C22.5371 20.7101 22.3529 20.5688 22.1796 20.4146C21.8157 20.0899 21.3177 19.9969 20.8648 20.1643L20.2313 19.0666C20.6025 18.7578 20.7712 18.2803 20.6722 17.8029C20.6251 17.5764 20.5945 17.3447 20.5812 17.1142C20.5527 16.6281 20.2665 16.2104 19.8289 16.0086L20.1569 14.7847C20.637 14.8292 21.0939 14.6107 21.3615 14.2036C21.4884 14.0111 21.6305 13.8258 21.7845 13.6525C22.1093 13.2886 22.2022 12.7905 22.0349 12.3376L23.1326 11.7041C23.44 12.0753 23.9182 12.2433 24.3956 12.1444ZM21.5143 16.836C21.5143 18.9583 23.2408 20.6849 25.3632 20.6849C27.4855 20.6849 29.2121 18.9583 29.2121 16.836C29.2121 14.7136 27.4855 12.9871 25.3632 12.9871C23.2408 12.9871 21.5143 14.7136 21.5143 16.836ZM23.5064 14.4161L23.5715 14.5284C23.6452 14.6559 23.7794 14.7276 23.9168 14.7276C23.9846 14.7276 24.053 14.7103 24.1154 14.6745C24.2069 14.6215 24.2736 14.5345 24.301 14.4324C24.3284 14.3303 24.3142 14.2215 24.2615 14.1299L24.1957 14.0164C24.4381 13.9154 24.6958 13.8457 24.9647 13.8105V13.9413C24.9647 14.1611 25.1434 14.3398 25.3632 14.3398C25.583 14.3398 25.7616 14.1611 25.7616 13.9413V13.8105C26.0305 13.8457 26.2882 13.9154 26.5306 14.0164L26.4648 14.1299C26.3546 14.3205 26.4204 14.5642 26.6109 14.6745C26.6734 14.711 26.7424 14.7276 26.8095 14.7276C26.947 14.7276 27.0811 14.6559 27.1548 14.5284L27.2199 14.4161C27.4311 14.5782 27.6203 14.7674 27.7823 14.9786L27.6701 15.0437C27.5787 15.0966 27.5119 15.1837 27.4845 15.2858C27.4571 15.3878 27.4713 15.4966 27.524 15.5882C27.5977 15.7157 27.7319 15.7874 27.8693 15.7874C27.9371 15.7874 28.0055 15.7702 28.0679 15.7343L28.1814 15.6686C28.2824 15.9109 28.3521 16.1686 28.3873 16.4375H28.2565C28.0367 16.4375 27.858 16.6162 27.858 16.836C27.858 17.0558 28.0367 17.2344 28.2565 17.2344H28.3873C28.3521 17.5034 28.2824 17.761 28.1814 18.0034L28.0679 17.9377C27.8773 17.8274 27.6336 17.8932 27.5234 18.0838C27.4131 18.2743 27.4789 18.5181 27.6695 18.6283L27.7817 18.6934C27.6196 18.9046 27.4305 19.0937 27.2192 19.2558L27.1541 19.1436C27.1012 19.0521 27.0141 18.9854 26.9121 18.958C26.81 18.9306 26.7012 18.9448 26.6096 18.9975C26.5181 19.0505 26.4514 19.1375 26.424 19.2396C26.3966 19.3417 26.4108 19.4504 26.4635 19.542L26.5293 19.6556C26.2832 19.7579 26.0246 19.8271 25.7603 19.8615V19.7306C25.7603 19.5108 25.5816 19.3322 25.3618 19.3322C25.142 19.3322 24.9634 19.5108 24.9634 19.7306V19.8615C24.6945 19.8263 24.4368 19.7565 24.1944 19.6556L24.2602 19.542C24.3704 19.3515 24.3046 19.1077 24.1141 18.9975C23.9235 18.8873 23.6798 18.953 23.5695 19.1436L23.5045 19.2558C23.2932 19.0937 23.1041 18.9046 22.942 18.6934L23.0542 18.6283C23.2448 18.5181 23.3099 18.2743 23.2003 18.0838C23.0907 17.8932 22.8464 17.8281 22.6558 17.9377L22.5422 18.0034C22.4399 17.7573 22.3707 17.4987 22.3364 17.2344H22.4672C22.687 17.2344 22.8656 17.0558 22.8656 16.836C22.8656 16.6162 22.687 16.4375 22.4672 16.4375H22.3364C22.3716 16.1686 22.4413 15.9109 22.5422 15.6686L22.6558 15.7343C22.7189 15.7708 22.7873 15.7874 22.8543 15.7874C22.9918 15.7874 23.1259 15.7157 23.1996 15.5882C23.3099 15.3976 23.2441 15.1539 23.0536 15.0437L22.9413 14.9786C23.106 14.7681 23.2953 14.5788 23.5064 14.4161ZM24.9647 16.836V15.0317C24.9647 14.8119 25.1434 14.6333 25.3632 14.6333C25.583 14.6333 25.7616 14.8119 25.7616 15.0317V16.4375H26.5791C26.7989 16.4375 26.9775 16.6162 26.9775 16.836C26.9775 17.0558 26.7989 17.2344 26.5791 17.2344H25.3632C25.1427 17.2344 24.9647 17.0558 24.9647 16.836ZM18.4217 11.9193C19.799 11.9193 21.1763 11.3947 22.2255 10.3461C23.2415 9.33009 23.8006 7.97938 23.8006 6.54235C23.8006 5.10532 23.2408 3.75462 22.2255 2.7386C20.1284 0.641494 16.7157 0.641494 14.6186 2.7386C13.6026 3.75462 13.0435 5.10532 13.0435 6.54235C13.0435 7.97938 13.6033 9.33009 14.6186 10.3461C15.6672 11.3953 17.0445 11.9193 18.4217 11.9193ZM15.6619 10.2C15.9056 9.12157 16.8731 8.33267 17.998 8.33267H18.8454C19.9703 8.33267 20.9379 9.12157 21.1816 10.2C19.5546 11.4292 17.2888 11.4292 15.6619 10.2ZM18.4217 7.36181C17.6527 7.36181 17.0272 6.73626 17.0272 5.96728C17.0272 5.19829 17.6527 4.57274 18.4217 4.57274C19.1907 4.57274 19.8162 5.19829 19.8162 5.96728C19.8162 6.73626 19.1907 7.36181 18.4217 7.36181ZM15.1818 3.30306C16.0749 2.40989 17.2483 1.96298 18.4217 1.96298C19.5951 1.96298 20.7685 2.40989 21.6617 3.30306C22.527 4.16833 23.0037 5.31915 23.0037 6.54302C23.0037 7.68388 22.5894 8.76099 21.8323 9.60235C21.4837 8.68063 20.722 7.96942 19.7877 7.67856C20.2904 7.27681 20.6131 6.65923 20.6131 5.96728C20.6131 4.75935 19.6303 3.77587 18.4217 3.77587C17.2131 3.77587 16.2303 4.75868 16.2303 5.96728C16.2303 6.65923 16.553 7.27681 17.0557 7.67856C16.1207 7.96942 15.3591 8.67997 15.0111 9.60235C14.2541 8.76032 13.8397 7.68321 13.8397 6.54302C13.8397 5.31915 14.3165 4.16833 15.1818 3.30306Z" fill="#0F0B18"/>
</svg>
