<svg width="35" height="35" viewBox="0 0 35 35" fill="none" xmlns="http://www.w3.org/2000/svg">
<path d="M8.99961 5.59998C7.12184 5.59998 5.59961 7.12221 5.59961 8.99998V12.4C5.59961 14.2777 7.12184 15.8 8.99961 15.8H12.3996C14.2774 15.8 15.7996 14.2777 15.7996 12.4V8.99998C15.7996 7.12221 14.2774 5.59998 12.3996 5.59998H8.99961Z" fill="#4899D1"/>
<path d="M8.99961 19.2C7.12184 19.2 5.59961 20.7222 5.59961 22.6V26C5.59961 27.8777 7.12184 29.4 8.99961 29.4H12.3996C14.2774 29.4 15.7996 27.8777 15.7996 26V22.6C15.7996 20.7222 14.2774 19.2 12.3996 19.2H8.99961Z" fill="#4899D1"/>
<path d="M19.1996 8.99998C19.1996 7.12221 20.7218 5.59998 22.5996 5.59998H25.9996C27.8774 5.59998 29.3996 7.12221 29.3996 8.99998V12.4C29.3996 14.2777 27.8774 15.8 25.9996 15.8H22.5996C20.7218 15.8 19.1996 14.2777 19.1996 12.4V8.99998Z" fill="#4899D1"/>
<path d="M19.1996 22.6C19.1996 20.7222 20.7218 19.2 22.5996 19.2H25.9996C27.8774 19.2 29.3996 20.7222 29.3996 22.6V26C29.3996 27.8777 27.8774 29.4 25.9996 29.4H22.5996C20.7218 29.4 19.1996 27.8777 19.1996 26V22.6Z" fill="#4899D1"/>
</svg>
