<svg width="34" height="34" viewBox="0 0 34 34" fill="none" xmlns="http://www.w3.org/2000/svg">
<path d="M33.0371 22.2036C32.4355 21.1611 31.0967 20.7972 29.9904 21.3756L23.043 25.004C22.9932 24.8433 22.9254 24.6872 22.8391 24.5378C22.5389 24.0179 22.0562 23.6467 21.4804 23.4926L11.3043 20.7659C11.1875 20.7341 11.1868 20.7341 10.4012 20.9891C9.4516 21.2979 7.64801 21.8836 6.75551 22.1538V20.7972C6.75551 20.5774 6.57688 20.3987 6.35707 20.3987H1.0625C0.842695 20.3987 0.664062 20.5774 0.664062 20.7972V32.9375C0.664062 33.1574 0.842695 33.336 1.0625 33.336H6.35707C6.57688 33.336 6.75551 33.1574 6.75551 32.9375V31.5397L10.7837 32.3366C11.0693 32.393 11.3289 32.4189 11.6138 32.4189C11.6443 32.4189 11.6755 32.4189 11.7068 32.4183L19.4657 32.2715C19.8621 32.2735 20.2546 32.1712 20.5986 31.9727L32.2163 25.265C33.2868 24.6474 33.6547 23.2741 33.0371 22.2036ZM5.95863 32.5391H1.46094V21.1956H5.95863V32.5391ZM31.8186 24.575L20.2001 31.2827C19.9777 31.4109 19.726 31.4799 19.4677 31.4746H19.4557L11.6915 31.6214C11.4252 31.6267 11.2001 31.6068 10.9384 31.555L6.75551 30.7275V22.9852C7.54707 22.7542 9.53129 22.1093 10.6469 21.7468C10.8787 21.6717 11.0892 21.6033 11.208 21.5648L21.2739 24.2622C21.6445 24.3618 21.9552 24.6009 22.1491 24.9363C22.343 25.2716 22.3948 25.6608 22.2952 26.0313C22.1956 26.4018 21.9566 26.7126 21.6212 26.9065C21.2859 27.1004 20.8967 27.1522 20.5262 27.0526L13.6611 25.2132C13.4486 25.1567 13.2301 25.2822 13.173 25.4947C13.1159 25.7072 13.2421 25.9257 13.4546 25.9828L20.3196 27.8223C20.8961 27.9763 21.4997 27.8967 22.019 27.5965C22.5389 27.2963 22.9102 26.8136 23.0642 26.2378C23.0981 26.1117 23.1207 25.9841 23.132 25.8567L30.3583 22.0828C31.0854 21.7029 31.958 21.932 32.3458 22.6034C32.7449 23.292 32.5079 24.1772 31.8186 24.575ZM8.39109 19.8628C8.84782 19.9856 9.31867 20.0478 9.7916 20.0481C10.7233 20.0481 11.643 19.8037 12.4718 19.3256C15.0397 17.8427 15.9229 14.547 14.44 11.9791C12.9572 9.41114 9.66145 8.52794 7.09352 10.0108C5.84973 10.7293 4.95922 11.8888 4.58801 13.2767C4.21613 14.6645 4.40672 16.1135 5.12523 17.3573C5.84375 18.6011 7.00387 19.4909 8.39109 19.8628ZM5.35832 13.4825C5.67508 12.3005 6.43277 11.3124 7.49262 10.7008C8.18636 10.2989 8.97395 10.0875 9.77566 10.0878C11.3601 10.0878 12.9034 10.9099 13.7507 12.3775C15.0138 14.5649 14.2614 17.3726 12.074 18.6356C11.3802 19.0375 10.5927 19.2489 9.79094 19.2486C8.20648 19.2486 6.6632 18.4265 5.81586 16.9589C5.20359 15.899 5.04156 14.6645 5.35832 13.4825ZM10.7034 15.9462C10.7034 15.5451 10.544 15.0663 9.78363 15.0663C8.74105 15.0663 8.06703 14.4082 8.06703 13.3895C8.06703 12.5993 8.63016 11.9352 9.3852 11.7593V11.2167C9.3852 10.9969 9.56383 10.8183 9.78363 10.8183C10.0034 10.8183 10.1821 10.9969 10.1821 11.2167V11.7593C10.9371 11.9352 11.5002 12.5993 11.5002 13.3895C11.5002 13.6093 11.3216 13.788 11.1018 13.788C10.882 13.788 10.7034 13.6093 10.7034 13.3895C10.7034 12.9048 10.291 12.5097 9.78363 12.5097C9.27629 12.5097 8.86391 12.9041 8.86391 13.3895C8.86391 13.7906 9.02328 14.2694 9.78363 14.2694C10.8262 14.2694 11.5002 14.9275 11.5002 15.9462C11.5002 16.7364 10.9371 17.4005 10.1821 17.5765V18.119C10.1821 18.3388 10.0034 18.5174 9.78363 18.5174C9.56383 18.5174 9.3852 18.3388 9.3852 18.119V17.5765C8.63016 17.4005 8.06703 16.7364 8.06703 15.9462C8.06703 15.7264 8.24566 15.5477 8.46547 15.5477C8.68527 15.5477 8.86391 15.7264 8.86391 15.9462C8.86391 16.4309 9.27629 16.8261 9.78363 16.8261C10.291 16.8261 10.7034 16.4309 10.7034 15.9462ZM23.2269 10.6715C23.0091 10.38 22.6073 10.2977 22.2919 10.4796L21.0773 11.1809C20.9249 11.2687 20.8101 11.4095 20.7546 11.5765C20.6991 11.7435 20.7069 11.925 20.7765 12.0867C20.8575 12.2746 20.8257 12.4698 20.6895 12.6219C20.5096 12.8238 20.3436 13.0402 20.1955 13.2654C20.0832 13.436 19.9033 13.517 19.7014 13.4878C19.3408 13.4354 18.9988 13.6618 18.9045 14.0131L18.5413 15.3684C18.447 15.7197 18.6309 16.087 18.9683 16.2218C19.1575 16.2975 19.2731 16.4575 19.285 16.6614C19.301 16.9303 19.3362 17.2013 19.3913 17.4656C19.4325 17.6654 19.3627 17.8507 19.1987 17.9729C18.9072 18.1907 18.8248 18.5925 19.0068 18.9079L19.708 20.1225C19.89 20.4379 20.2791 20.5674 20.6138 20.4233C20.8018 20.3423 20.997 20.3741 21.1491 20.5103C21.3503 20.6902 21.5668 20.8563 21.7925 21.0043C21.9632 21.1166 22.0442 21.2965 22.015 21.4984C21.9901 21.6725 22.0297 21.8497 22.1265 21.9965C22.2233 22.1433 22.3705 22.2496 22.5403 22.2953L23.895 22.6585C23.9567 22.6751 24.0198 22.6831 24.0809 22.6831C24.3684 22.6831 24.6367 22.5091 24.7476 22.2309C24.8233 22.0416 24.9834 21.9261 25.1872 21.9141C25.4562 21.8982 25.7264 21.863 25.9914 21.8079C26.1913 21.7667 26.3766 21.8364 26.4988 22.0004C26.7166 22.292 27.1183 22.375 27.4338 22.193L28.6483 21.4918C28.9631 21.3105 29.0939 20.924 28.9538 20.594C28.8741 20.4074 28.906 20.2128 29.0408 20.0614C29.2221 19.8568 29.3894 19.6377 29.5382 19.4093C29.6484 19.2406 29.8257 19.1589 30.0256 19.1842C30.3928 19.2326 30.7282 19.0108 30.8218 18.6595L31.185 17.3042C31.2807 16.9469 31.0967 16.5797 30.7574 16.4495C30.5648 16.3758 30.4466 16.2158 30.4333 16.0093C30.4164 15.7421 30.3804 15.4765 30.3257 15.2144C30.2832 15.0132 30.3543 14.8272 30.519 14.705C30.8158 14.4852 30.9015 14.0808 30.7189 13.7647L30.0176 12.5502C29.8337 12.2321 29.4319 12.1013 29.1025 12.2527C28.9126 12.3397 28.7134 12.3104 28.5573 12.1716C28.3597 11.9969 28.15 11.8362 27.9298 11.6909C27.7558 11.576 27.6755 11.3927 27.7093 11.1868C27.7698 10.8209 27.5446 10.473 27.1861 10.3767L25.8307 10.0134C25.4794 9.91915 25.1122 10.1031 24.9774 10.4404C24.9017 10.6297 24.7416 10.7452 24.5378 10.7572C24.2682 10.7731 23.9979 10.809 23.7336 10.8634C23.5337 10.9059 23.3491 10.8356 23.2269 10.6715ZM23.8956 11.6444C24.1221 11.5972 24.3538 11.5667 24.5843 11.5534C25.0704 11.5249 25.488 11.2386 25.6899 10.801L26.9131 11.1284C26.8587 11.6172 27.0765 12.0827 27.4915 12.3563C27.6795 12.4798 27.8601 12.6186 28.0287 12.768C28.4006 13.0974 28.9046 13.1857 29.3615 13.0077L29.9944 14.1034C29.6159 14.4122 29.4445 14.895 29.5455 15.3777C29.5926 15.6022 29.6238 15.8313 29.6378 16.0584C29.6683 16.5465 29.9572 16.9629 30.3975 17.1621L30.0694 18.3866C29.5833 18.3441 29.1391 18.5606 28.8701 18.973C28.7418 19.1691 28.5996 19.3558 28.4445 19.5315C28.1244 19.892 28.0314 20.3848 28.1928 20.8337L27.0944 21.4679C26.7856 21.0967 26.3082 20.928 25.83 21.0269C25.6029 21.0741 25.3718 21.1046 25.1414 21.1179C24.6553 21.1465 24.2376 21.4327 24.0357 21.8703L22.8119 21.5422C22.8564 21.0621 22.6372 20.6052 22.2308 20.3376C22.0371 20.2101 21.8529 20.0688 21.6796 19.9146C21.3157 19.5899 20.8177 19.4969 20.3648 19.6643L19.7313 18.5666C20.1025 18.2578 20.2712 17.7803 20.1722 17.3029C20.1251 17.0764 20.0945 16.8447 20.0812 16.6142C20.0527 16.1281 19.7665 15.7104 19.3289 15.5086L19.6569 14.2847C20.137 14.3292 20.5939 14.1107 20.8615 13.7036C20.9884 13.5111 21.1305 13.3258 21.2845 13.1525C21.6093 12.7886 21.7022 12.2905 21.5349 11.8376L22.6326 11.2041C22.94 11.5753 23.4182 11.7433 23.8956 11.6444ZM21.0143 16.336C21.0143 18.4583 22.7408 20.1849 24.8632 20.1849C26.9855 20.1849 28.7121 18.4583 28.7121 16.336C28.7121 14.2136 26.9855 12.4871 24.8632 12.4871C22.7408 12.4871 21.0143 14.2136 21.0143 16.336ZM23.0064 13.9161L23.0715 14.0284C23.1452 14.1559 23.2794 14.2276 23.4168 14.2276C23.4846 14.2276 23.553 14.2103 23.6154 14.1745C23.7069 14.1215 23.7736 14.0345 23.801 13.9324C23.8284 13.8303 23.8142 13.7215 23.7615 13.6299L23.6957 13.5164C23.9381 13.4154 24.1958 13.3457 24.4647 13.3105V13.4413C24.4647 13.6611 24.6434 13.8398 24.8632 13.8398C25.083 13.8398 25.2616 13.6611 25.2616 13.4413V13.3105C25.5305 13.3457 25.7882 13.4154 26.0306 13.5164L25.9648 13.6299C25.8546 13.8205 25.9204 14.0642 26.1109 14.1745C26.1734 14.211 26.2424 14.2276 26.3095 14.2276C26.447 14.2276 26.5811 14.1559 26.6548 14.0284L26.7199 13.9161C26.9311 14.0782 27.1203 14.2674 27.2823 14.4786L27.1701 14.5437C27.0787 14.5966 27.0119 14.6837 26.9845 14.7858C26.9571 14.8878 26.9713 14.9966 27.024 15.0882C27.0977 15.2157 27.2319 15.2874 27.3693 15.2874C27.4371 15.2874 27.5055 15.2702 27.5679 15.2343L27.6814 15.1686C27.7824 15.4109 27.8521 15.6686 27.8873 15.9375H27.7565C27.5367 15.9375 27.358 16.1162 27.358 16.336C27.358 16.5558 27.5367 16.7344 27.7565 16.7344H27.8873C27.8521 17.0034 27.7824 17.261 27.6814 17.5034L27.5679 17.4377C27.3773 17.3274 27.1336 17.3932 27.0234 17.5838C26.9131 17.7743 26.9789 18.0181 27.1695 18.1283L27.2817 18.1934C27.1196 18.4046 26.9305 18.5937 26.7192 18.7558L26.6541 18.6436C26.6012 18.5521 26.5141 18.4854 26.4121 18.458C26.31 18.4306 26.2012 18.4448 26.1096 18.4975C26.0181 18.5505 25.9514 18.6375 25.924 18.7396C25.8966 18.8417 25.9108 18.9504 25.9635 19.042L26.0293 19.1556C25.7832 19.2579 25.5246 19.3271 25.2603 19.3615V19.2306C25.2603 19.0108 25.0816 18.8322 24.8618 18.8322C24.642 18.8322 24.4634 19.0108 24.4634 19.2306V19.3615C24.1945 19.3263 23.9368 19.2565 23.6944 19.1556L23.7602 19.042C23.8704 18.8515 23.8046 18.6077 23.6141 18.4975C23.4235 18.3873 23.1798 18.453 23.0695 18.6436L23.0045 18.7558C22.7932 18.5937 22.6041 18.4046 22.442 18.1934L22.5542 18.1283C22.7448 18.0181 22.8099 17.7743 22.7003 17.5838C22.5907 17.3932 22.3464 17.3281 22.1558 17.4377L22.0422 17.5034C21.9399 17.2573 21.8707 16.9987 21.8364 16.7344H21.9672C22.187 16.7344 22.3656 16.5558 22.3656 16.336C22.3656 16.1162 22.187 15.9375 21.9672 15.9375H21.8364C21.8716 15.6686 21.9413 15.4109 22.0422 15.1686L22.1558 15.2343C22.2189 15.2708 22.2873 15.2874 22.3543 15.2874C22.4918 15.2874 22.6259 15.2157 22.6996 15.0882C22.8099 14.8976 22.7441 14.6539 22.5536 14.5437L22.4413 14.4786C22.606 14.2681 22.7953 14.0788 23.0064 13.9161ZM24.4647 16.336V14.5317C24.4647 14.3119 24.6434 14.1333 24.8632 14.1333C25.083 14.1333 25.2616 14.3119 25.2616 14.5317V15.9375H26.0791C26.2989 15.9375 26.4775 16.1162 26.4775 16.336C26.4775 16.5558 26.2989 16.7344 26.0791 16.7344H24.8632C24.6427 16.7344 24.4647 16.5558 24.4647 16.336ZM17.9217 11.4193C19.299 11.4193 20.6763 10.8947 21.7255 9.8461C22.7415 8.83009 23.3006 7.47938 23.3006 6.04235C23.3006 4.60532 22.7408 3.25462 21.7255 2.2386C19.6284 0.141494 16.2157 0.141494 14.1186 2.2386C13.1026 3.25462 12.5435 4.60532 12.5435 6.04235C12.5435 7.47938 13.1033 8.83009 14.1186 9.8461C15.1672 10.8953 16.5445 11.4193 17.9217 11.4193ZM15.1619 9.70001C15.4056 8.62157 16.3731 7.83267 17.498 7.83267H18.3454C19.4703 7.83267 20.4379 8.62157 20.6816 9.70001C19.0546 10.9292 16.7888 10.9292 15.1619 9.70001ZM17.9217 6.86181C17.1527 6.86181 16.5272 6.23626 16.5272 5.46728C16.5272 4.69829 17.1527 4.07274 17.9217 4.07274C18.6907 4.07274 19.3162 4.69829 19.3162 5.46728C19.3162 6.23626 18.6907 6.86181 17.9217 6.86181ZM14.6818 2.80306C15.5749 1.90989 16.7483 1.46298 17.9217 1.46298C19.0951 1.46298 20.2685 1.90989 21.1617 2.80306C22.027 3.66833 22.5037 4.81915 22.5037 6.04302C22.5037 7.18388 22.0894 8.26099 21.3323 9.10235C20.9837 8.18063 20.222 7.46942 19.2877 7.17856C19.7904 6.77681 20.1131 6.15923 20.1131 5.46728C20.1131 4.25935 19.1303 3.27587 17.9217 3.27587C16.7131 3.27587 15.7303 4.25868 15.7303 5.46728C15.7303 6.15923 16.053 6.77681 16.5557 7.17856C15.6207 7.46942 14.8591 8.17997 14.5111 9.10235C13.7541 8.26032 13.3397 7.18321 13.3397 6.04302C13.3397 4.81915 13.8165 3.66833 14.6818 2.80306Z" fill="#0F0B18"/>
</svg>
