<svg width="17" height="16" viewBox="0 0 17 16" fill="none" xmlns="http://www.w3.org/2000/svg">
<path d="M12.2711 12.4379C10.1883 14.5207 6.8114 14.5207 4.7286 12.4379C3.6872 11.3965 3.16651 10.0316 3.1665 8.66667C3.1665 7.30174 3.6872 5.93682 4.7286 4.89542C4.7286 4.89542 5.16653 5.99997 6.49987 6.66664C6.49987 5.3333 6.8332 3.3333 8.49043 2C9.83317 3.33333 11.2273 3.85163 12.2711 4.89542C13.3125 5.93682 13.8332 7.30175 13.8332 8.66667C13.8332 10.0316 13.3125 11.3965 12.2711 12.4379Z" stroke="white" stroke-width="1.5" stroke-linecap="round" stroke-linejoin="round"/>
<path d="M7.08562 10.7475C7.86667 11.5286 9.133 11.5286 9.91405 10.7475C10.3046 10.357 10.4998 9.84516 10.4998 9.33333C10.4998 8.82147 10.3046 8.30962 9.91405 7.91909C9.526 7.53103 9.01815 7.33578 8.50955 7.33333L7.83314 9.33329L6.49984 9.33333C6.49984 9.84516 6.69511 10.357 7.08562 10.7475Z" stroke="white" stroke-width="1.5" stroke-linecap="round" stroke-linejoin="round"/>
</svg>
