<svg width="76" height="40" viewBox="0 0 76 40" fill="none" xmlns="http://www.w3.org/2000/svg">
<rect x="0.5" y="0.5" width="75" height="39" rx="5.5" fill="white"/>
<rect x="0.5" y="0.5" width="75" height="39" rx="5.5" stroke="#DFE2E6"/>
<path d="M47.7402 14.9009C50.3698 14.9011 52.8491 16.7614 52.8643 20.1763C52.8643 23.9095 50.4145 25.606 47.7246 25.606C46.4023 25.6059 45.6054 25.17 45.0645 24.8638L45.0498 28.1968L41.293 28.8208V15.0894H44.5986L44.7939 15.8188C45.3199 15.442 46.2675 14.9009 47.7402 14.9009ZM15.6865 14.9009C16.9337 14.9009 18.1659 15.0543 19.4131 15.4429V18.2095C18.2711 17.7268 16.8285 17.4565 15.6865 17.4565C14.8901 17.4566 14.4092 17.633 14.4092 18.0923C14.4096 19.4111 20.1343 18.7871 20.1494 22.2964C20.1494 24.4044 18.0007 25.6177 14.875 25.6177C13.5827 25.6177 12.17 25.4169 10.7725 24.9458V22.1431C12.0347 22.6848 13.6277 23.0854 14.875 23.0854C15.7165 23.0854 16.3174 22.9084 16.3174 22.3667C16.3163 20.9658 10.6079 21.4835 10.6074 18.2339C10.6074 16.1494 12.636 14.9009 15.6865 14.9009ZM24.5527 15.1011H27.4082V17.6089H24.5527V21.7896C24.5527 23.5325 26.9273 22.9915 27.4082 22.8384V25.229C26.9123 25.441 26.0104 25.6176 24.7783 25.6177C22.5545 25.6177 20.886 24.334 20.8857 22.5913L20.9014 13.1577L24.5674 12.5454L24.5527 15.1011ZM59.2812 14.9009C62.8426 14.901 64.7061 17.2797 64.7061 20.2944C64.7061 20.577 64.6758 21.1888 64.6758 21.3423H57.3271C57.4925 22.7319 58.7855 23.1323 60.2432 23.1323C61.7307 23.1323 62.903 22.8852 63.9248 22.4849V24.8403C62.9029 25.2878 61.55 25.606 59.7617 25.606C56.0952 25.6059 53.5411 23.8156 53.541 20.271C53.541 17.2797 55.7047 14.9009 59.2812 14.9009ZM32.082 15.9722C32.9686 14.7008 34.7259 14.9598 35.207 15.1011V17.8091C34.7408 17.6796 33.2389 17.5158 32.3525 18.4224V25.4058H28.5957V15.1011H31.8408L32.082 15.9722ZM39.8955 25.4058H36.124V15.1011H39.8955V25.4058ZM46.8379 17.5151C45.9815 17.5152 45.4405 17.7508 45.0498 18.0923L45.0645 22.4614C45.4251 22.7676 45.9514 23.0151 46.8379 23.0151C48.2203 23.0151 49.1522 21.8372 49.1523 20.2593C49.1523 18.7165 48.2054 17.5151 46.8379 17.5151ZM59.2656 17.2915C58.319 17.2916 57.2824 17.8449 57.2822 19.1753H61.1592C61.159 17.8447 60.1822 17.2915 59.2656 17.2915ZM39.8955 13.5698L36.124 14.2056V11.8032L39.8955 11.1792V13.5698Z" fill="#6461FC"/>
</svg>
