<svg width="17" height="16" viewBox="0 0 17 16" fill="none" xmlns="http://www.w3.org/2000/svg">
<path d="M7.17531 4.08294C7.41368 4.18757 7.6625 4.23708 7.9075 4.23708C8.61129 4.23708 9.28349 3.8285 9.58403 3.14389C9.77677 2.70488 9.79629 2.26901 9.64376 1.84627C9.72444 1.80054 9.78313 1.74296 9.82146 1.67228C9.94781 1.43917 9.79612 1.15684 9.67101 0.964767C9.30394 0.40118 8.74514 0.0702392 8.05494 0.00780063C7.99786 0.00261137 7.93826 0 7.8777 0C7.42379 0 6.9663 0.140713 6.6225 0.386115C6.16411 0.713272 5.89952 1.22276 5.8573 1.85956C5.80273 2.68358 6.18968 3.19009 6.26648 3.28189C6.44419 3.62652 6.74965 3.89606 7.17531 4.08294ZM7.28967 3.82238C6.96603 3.68026 6.72535 3.48631 6.57248 3.24476C6.79224 3.03284 6.83483 2.59409 6.84172 2.49503C6.84477 2.45094 6.82716 2.40792 6.79408 2.37862C6.70057 2.29586 6.67151 2.16335 6.72177 2.04882C6.7675 1.9447 6.87055 1.87737 6.98434 1.87737C7.02392 1.87737 7.06258 1.88554 7.09931 1.90168C7.16942 1.93245 7.22332 1.98866 7.2511 2.05997C7.27889 2.13128 7.27725 2.20915 7.24648 2.27926L6.99094 2.86149C6.95937 2.93344 6.99208 3.01737 7.06402 3.04898L7.44311 3.2154C7.51171 3.24546 7.59189 3.21734 7.62647 3.15085C7.65028 3.10519 7.66852 3.04382 7.6938 2.95885C7.76511 2.71917 7.8536 2.47136 8.01152 2.28532C8.29247 2.46205 8.2756 2.85918 8.27469 2.87669C8.27158 2.92969 8.2982 2.98001 8.34376 3.00719L8.57899 3.14767C8.48876 3.14061 8.3974 3.15323 8.31055 3.18711C8.15892 3.24623 8.03937 3.36083 7.97399 3.50985L7.90124 3.6755C7.86963 3.74745 7.90234 3.83138 7.97429 3.86299C7.9929 3.87116 8.01232 3.87501 8.03144 3.87501C8.08617 3.87501 8.13837 3.84323 8.1618 3.7899L8.23455 3.62421C8.26944 3.5448 8.33312 3.48374 8.4139 3.4522C8.49472 3.42076 8.5829 3.42254 8.66232 3.45742L8.92402 3.57232C8.8503 3.63637 8.77096 3.69288 8.68729 3.74152L8.49305 3.65622C8.421 3.62462 8.33713 3.65736 8.30553 3.7293C8.28049 3.78639 8.29636 3.85057 8.33968 3.89061C8.00418 3.98823 7.63397 3.9735 7.28967 3.82238ZM8.33606 2.04926L9.4306 2.70036C9.40763 2.8088 9.37221 2.91834 9.3234 3.02949C9.29634 3.09113 9.26534 3.14978 9.23149 3.20596L8.55823 2.80381C8.55026 2.64408 8.50058 2.30889 8.2372 2.09673C8.26833 2.07909 8.30124 2.06318 8.33606 2.04926ZM9.46089 2.38729L8.78016 1.98233C8.80293 1.98263 8.826 1.98303 8.84786 1.98303C9.05945 1.98303 9.23377 1.96911 9.37525 1.94018C9.42939 2.08859 9.45791 2.23724 9.46089 2.38729ZM6.14127 1.87838C6.21924 0.70199 7.12542 0.284572 7.8777 0.284572C7.92973 0.284572 7.98072 0.286782 8.02926 0.291168C8.63804 0.346274 9.11017 0.625155 9.4325 1.12004C9.56079 1.31703 9.61008 1.46501 9.57124 1.53662C9.54486 1.58527 9.42159 1.69843 8.84786 1.69843C8.81615 1.69843 8.78338 1.69806 8.74966 1.69742C7.77753 1.67821 7.52734 2.52037 7.42104 2.87766C7.41954 2.88272 7.41803 2.88784 7.41649 2.8929L7.30866 2.84556L7.50702 2.39366C7.56835 2.25395 7.57163 2.09874 7.51623 1.95662C7.46082 1.81447 7.35335 1.70241 7.21364 1.64111C7.14066 1.60907 7.06352 1.59284 6.98428 1.59284C6.75759 1.59284 6.55223 1.72695 6.46113 1.93449C6.37134 2.13905 6.4087 2.37256 6.55179 2.53758C6.53311 2.6941 6.48423 2.89032 6.41175 2.99702C6.29789 2.81887 6.10475 2.42941 6.14127 1.87838Z" fill="#4F4F59"/>
<path d="M2.69942 11.9508C2.77799 11.9508 2.8417 11.8871 2.8417 11.8085V9.83284C2.8417 9.75423 2.77799 9.69055 2.69942 9.69055C2.62084 9.69055 2.55713 9.75423 2.55713 9.83284V11.8085C2.55713 11.8871 2.62084 11.9508 2.69942 11.9508Z" fill="#4F4F59"/>
<path d="M10.0404 9.02002C9.75426 9.02002 9.52148 9.2528 9.52148 9.53895C9.52148 9.82509 9.75426 10.0579 10.0404 10.0579C10.3266 10.0579 10.5593 9.82509 10.5593 9.53895C10.5593 9.2528 10.3265 9.02002 10.0404 9.02002ZM10.0404 9.7733C9.91118 9.7733 9.80606 9.66814 9.80606 9.53895C9.80606 9.40975 9.91118 9.30459 10.0404 9.30459C10.1696 9.30459 10.2748 9.40975 10.2748 9.53895C10.2748 9.66814 10.1696 9.7733 10.0404 9.7733Z" fill="#4F4F59"/>
<path d="M7.25622 5.96202C7.56182 5.27165 7.29606 4.39443 6.72193 3.92777C6.69253 3.90205 6.56853 3.79459 6.51051 3.75779C5.77189 3.28932 4.94908 3.43097 4.30956 4.13678C3.591 4.92976 1.61054 7.46775 1.59062 7.49332C1.54294 7.55446 1.55302 7.64257 1.61328 7.69139L1.97851 7.98721V14.9173C1.97851 15.5143 2.46422 16 3.06122 16C3.65819 16 4.14387 15.5143 4.14387 14.9173V9.74108L4.38927 9.93984C4.41475 9.96047 4.44642 9.97155 4.47883 9.97155C4.48512 9.97155 4.49145 9.97111 4.49778 9.97028C4.53658 9.96509 4.57153 9.9441 4.5944 9.91226L5.78977 8.24758C5.93152 8.36164 6.1487 8.45304 6.4239 8.42217L7.14996 8.9202C7.1137 9.10966 7.10285 9.30843 7.10285 9.539C7.10285 9.61761 7.16656 9.68128 7.24514 9.68128H8.26408C8.33686 10.598 9.10557 11.3218 10.0406 11.3218C10.4223 11.3218 10.776 11.2008 11.0663 10.9958L14.6498 13.3408C14.6738 13.3565 14.7008 13.364 14.7276 13.364C14.774 13.364 14.8195 13.3413 14.8467 13.2996C14.8898 13.2338 14.8713 13.1456 14.8056 13.1026L11.2944 10.8049C11.4798 10.6213 11.6253 10.3974 11.7163 10.1474L15.1904 12.2222C15.2133 12.2359 15.2384 12.2424 15.2632 12.2424C15.3117 12.2424 15.3589 12.2177 15.3855 12.1731C15.4258 12.1056 15.4038 12.0183 15.3363 11.978L12.6118 10.3508H15.2968C15.3754 10.3508 15.4391 10.2872 15.4391 10.2085C15.4391 10.1299 15.3754 10.0663 15.2968 10.0663H12.1386C12.1377 10.0663 12.1368 10.0665 12.1358 10.0666L11.9391 9.94908H12.9366C12.975 9.94908 13.0118 9.93352 13.0386 9.90596C13.0653 9.87844 13.0798 9.84118 13.0788 9.80278C13.0538 8.91917 12.7243 8.10526 12.1511 7.51097C11.5853 6.92428 10.8358 6.60117 10.0406 6.60117C9.74077 6.60117 9.50823 6.65581 9.26202 6.71363C9.22523 6.7223 9.18787 6.73097 9.15013 6.73958C9.00992 6.63214 8.83563 6.56833 8.64905 6.56833C8.62585 6.56833 8.60232 6.56933 8.57885 6.57131L7.06706 6.70104L7.03948 6.37981C7.03951 6.37988 7.20858 6.06963 7.25622 5.96202ZM12.7871 9.66455H11.8185C11.8214 9.62303 11.8234 9.58125 11.8234 9.539C11.8234 8.55599 11.0237 7.75624 10.0406 7.75624C9.77378 7.75624 9.52065 7.81559 9.29316 7.92112C9.42342 7.76089 9.4945 7.55248 9.47589 7.33132C9.46524 7.2046 9.4257 7.08615 9.36447 6.98196C9.58051 6.93141 9.78831 6.88578 10.0406 6.88578C11.4935 6.88578 12.6753 8.09478 12.7871 9.66455ZM3.06122 15.7154C2.62111 15.7154 2.26308 15.3574 2.26308 14.9173V14.5211C2.28682 14.5388 2.31601 14.5497 2.34795 14.5497H3.85665C3.85756 14.5497 3.85836 14.5495 3.85926 14.5495V14.9173C3.8593 15.3574 3.50127 15.7154 3.06122 15.7154ZM3.8593 13.5986H3.61108C3.53251 13.5986 3.4688 13.6623 3.4688 13.7409C3.4688 13.8195 3.53251 13.8832 3.61108 13.8832H3.8593V14.2655C3.85839 14.2655 3.85759 14.2652 3.85669 14.2652H2.34795C2.31601 14.2652 2.28682 14.2761 2.26308 14.2939V8.21771L3.8593 9.51057V13.5986ZM4.45117 9.62377L1.90107 7.55831C2.29047 7.06084 3.89425 5.01892 4.52044 4.32787C5.05925 3.73325 5.74621 3.61005 6.35808 3.99811C6.38834 4.01729 6.48068 4.09483 6.53655 4.14371C6.53789 4.14491 6.5393 4.14605 6.54071 4.14719C7.01443 4.53089 7.20928 5.2601 6.99595 5.84689L6.99405 5.85051L6.90623 4.82742C6.86977 4.39386 6.5157 4.06687 6.08268 4.06687C6.05931 4.06687 6.03561 4.06788 6.01227 4.06985C5.79134 4.0884 5.59054 4.19182 5.44684 4.36105C5.30282 4.53066 5.23375 4.74573 5.2524 4.96682L5.48421 7.66859C5.49529 7.79973 5.53556 7.92099 5.5981 8.02651L5.22772 8.54229L4.74479 8.15142C4.68372 8.10201 4.59413 8.11148 4.54465 8.17252C4.4952 8.23358 4.50467 8.3232 4.56574 8.37265L5.06143 8.77383L4.8624 9.05097L3.2936 7.78021C3.23253 7.73069 3.14294 7.74013 3.09346 7.80123C3.04401 7.86226 3.05342 7.95189 3.11445 8.00137L4.69621 9.28258L4.45117 9.62377ZM6.30823 8.14453C6.02462 8.15996 5.79188 7.92962 5.76781 7.64442L5.536 4.94265C5.52378 4.79782 5.56918 4.65664 5.66382 4.54519C5.7585 4.4337 5.89071 4.36561 6.03621 4.35339C6.05168 4.35208 6.06734 4.35138 6.08274 4.35138C6.36661 4.35138 6.59876 4.56628 6.62273 4.85145L6.79575 6.86713C6.80248 6.94541 6.87124 7.00346 6.94969 6.99673L8.60298 6.85488C8.61832 6.85357 8.63379 6.8529 8.64909 6.8529C8.93004 6.8529 9.16868 7.0735 9.19235 7.35509C9.21743 7.65332 8.99409 7.9165 8.69425 7.94174C8.69425 7.94174 6.90757 8.11195 6.30823 8.14453ZM6.86944 8.38397L7.3597 8.34189C7.30631 8.44031 7.26322 8.53543 7.22917 8.62981L6.86944 8.38397ZM7.70832 8.31196L8.71829 8.22531C8.76938 8.22099 8.81889 8.21192 8.8667 8.19893C8.52736 8.49659 8.30184 8.92047 8.26404 9.39668H7.38917C7.40152 8.92549 7.4821 8.66034 7.70832 8.31196ZM10.0406 11.0372C9.21455 11.0372 8.54245 10.3651 8.54245 9.539C8.54245 8.7129 9.21455 8.04081 10.0406 8.04081C10.8667 8.04081 11.5388 8.7129 11.5388 9.539C11.5388 10.3651 10.8667 11.0372 10.0406 11.0372Z" fill="#4F4F59"/>
<path d="M3.21799 6.73628L4.75803 4.96189C4.80955 4.90253 4.80319 4.81267 4.74383 4.76115C4.68448 4.70962 4.59458 4.71602 4.54313 4.77534L3.00309 6.54973C2.9516 6.60909 2.95793 6.69895 3.01728 6.75048C3.0442 6.77384 3.07741 6.78529 3.11049 6.78529C3.1503 6.78529 3.18987 6.76869 3.21799 6.73628Z" fill="#4F4F59"/>
</svg>
